<?xml version="1.0" encoding="UTF-8" standalone="no"?>
<!DOCTYPE svg PUBLIC "-//W3C//DTD SVG 1.1//EN"
 "http://www.w3.org/Graphics/SVG/1.1/DTD/svg11.dtd">
<!-- Generated by graphviz version 2.34.0 (20130907.0228)
 -->
<!-- Title: G Pages: 1 -->
<svg width="356pt" height="160pt"
 viewBox="0.00 0.00 355.99 160.44" xmlns="http://www.w3.org/2000/svg" xmlns:xlink="http://www.w3.org/1999/xlink">
<g id="graph0" class="graph" transform="scale(1 1) rotate(0) translate(4 156.445)">
<title>G</title>
<polygon fill="white" stroke="white" points="-4,4 -4,-156.445 351.99,-156.445 351.99,4 -4,4"/>
<!-- PEDF -->
<g id="node1" class="node"><title>PEDF</title>
<ellipse fill="#ff9900" stroke="black" cx="33.1471" cy="-33.1471" rx="33.2948" ry="33.2948"/>
<text text-anchor="middle" x="33.1471" y="-29.4471" font-family="Times,serif" font-size="14.00">PEDF</text>
</g>
<!-- MET -->
<g id="node2" class="node"><title>MET</title>
<ellipse fill="#ff9900" stroke="black" cx="168.191" cy="-33.1471" rx="29.795" ry="29.795"/>
<text text-anchor="middle" x="168.191" y="-29.4471" font-family="Times,serif" font-size="14.00">MET</text>
</g>
<!-- PEDF&#45;&gt;MET -->
<g id="edge1" class="edge"><title>PEDF&#45;&gt;MET</title>
<g id="a_edge1"><a xlink:href="PEDF-MET.html">
<path fill="none" stroke="black" d="M66.5288,-33.1471C85.0669,-33.1471 108.264,-33.1471 127.817,-33.1471"/>
<polygon fill="black" stroke="black" points="127.958,-36.6472 137.958,-33.1471 127.958,-29.6472 127.958,-36.6472"/>
</a>
</g>
</g>
<!-- TST -->
<g id="node3" class="node"><title>TST</title>
<ellipse fill="#ff9900" stroke="black" cx="194.747" cy="-125.147" rx="26.7961" ry="26.7961"/>
<text text-anchor="middle" x="194.747" y="-121.447" font-family="Times,serif" font-size="14.00">TST</text>
</g>
<!-- NSF -->
<g id="node4" class="node"><title>NSF</title>
<ellipse fill="#ff9900" stroke="black" cx="320.692" cy="-125.147" rx="27.0966" ry="27.0966"/>
<text text-anchor="middle" x="320.692" y="-121.447" font-family="Times,serif" font-size="14.00">NSF</text>
</g>
<!-- TST&#45;&gt;NSF -->
<g id="edge2" class="edge"><title>TST&#45;&gt;NSF</title>
<g id="a_edge2"><a xlink:href="TST-NSF.html">
<path fill="none" stroke="black" d="M221.457,-125.147C239.329,-125.147 263.113,-125.147 282.916,-125.147"/>
<polygon fill="black" stroke="black" points="283.15,-128.647 293.15,-125.147 283.15,-121.647 283.15,-128.647"/>
</a>
</g>
</g>
</g>
</svg>
