<?xml version="1.0" encoding="UTF-8" standalone="no"?>
<!DOCTYPE svg PUBLIC "-//W3C//DTD SVG 1.1//EN"
 "http://www.w3.org/Graphics/SVG/1.1/DTD/svg11.dtd">
<!-- Generated by graphviz version 2.28.0 (20110507.0327)
 -->
<!-- Title: G Pages: 1 -->
<svg width="309pt" height="65pt"
 viewBox="0.00 0.00 309.29 65.19" xmlns="http://www.w3.org/2000/svg" xmlns:xlink="http://www.w3.org/1999/xlink">
<g id="graph1" class="graph" transform="scale(1 1) rotate(0) translate(4 61.1949)">
<title>G</title>
<polygon fill="white" stroke="white" points="-4,5 -4,-61.1949 306.286,-61.1949 306.286,5 -4,5"/>
<!-- Lep -->
<g id="node1" class="node"><title>Lep</title>
<ellipse fill="lightgrey" stroke="black" cx="153.893" cy="-28.5975" rx="24.5455" ry="24.8972"/>
<text text-anchor="middle" x="153.893" y="-24.8975" font-family="Times New Roman,serif" font-size="14.00">Lep</text>
</g>
<!-- Ins -->
<g id="node2" class="node"><title>Ins</title>
<ellipse fill="lightgrey" stroke="black" cx="279.188" cy="-28.5975" rx="22.1473" ry="22.1965"/>
<text text-anchor="middle" x="279.188" y="-24.8975" font-family="Times New Roman,serif" font-size="14.00">Ins</text>
</g>
<!-- Lep&#45;&gt;Ins -->
<g id="edge2" class="edge"><title>Lep&#45;&gt;Ins</title>
<path fill="none" stroke="black" d="M178.647,-28.5975C198.17,-28.5975 225.558,-28.5975 246.82,-28.5975"/>
<polygon fill="black" stroke="black" points="247.004,-32.0976 257.004,-28.5975 247.004,-25.0976 247.004,-32.0976"/>
</g>
<!-- TNF -->
<g id="node4" class="node"><title>TNF</title>
<ellipse fill="lightgrey" stroke="black" cx="28.5975" cy="-28.5975" rx="28.3955" ry="28.6953"/>
<text text-anchor="middle" x="28.5975" y="-24.8975" font-family="Times New Roman,serif" font-size="14.00">TNF</text>
</g>
<!-- Lep&#45;&gt;TNF -->
<g id="edge4" class="edge"><title>Lep&#45;&gt;TNF</title>
<path fill="none" stroke="black" d="M129.437,-28.5975C111.85,-28.5975 87.7687,-28.5975 67.5496,-28.5975"/>
<polygon fill="black" stroke="black" points="67.3833,-25.0976 57.3833,-28.5975 67.3832,-32.0976 67.3833,-25.0976"/>
</g>
</g>
</svg>
