<?xml version="1.0" encoding="UTF-8" standalone="no"?>
<!DOCTYPE svg PUBLIC "-//W3C//DTD SVG 1.1//EN"
 "http://www.w3.org/Graphics/SVG/1.1/DTD/svg11.dtd">
<!-- Generated by graphviz version 2.34.0 (20130907.0228)
 -->
<!-- Title: G Pages: 1 -->
<svg width="736pt" height="690pt"
 viewBox="0.00 0.00 736.49 690.30" xmlns="http://www.w3.org/2000/svg" xmlns:xlink="http://www.w3.org/1999/xlink">
<g id="graph0" class="graph" transform="scale(1 1) rotate(0) translate(4 686.295)">
<title>G</title>
<polygon fill="white" stroke="white" points="-4,4 -4,-686.295 732.495,-686.295 732.495,4 -4,4"/>
<!-- EGFR -->
<g id="node1" class="node"><title>EGFR</title>
<ellipse fill="#ffc900" stroke="black" cx="210.897" cy="-230.048" rx="33.5952" ry="33.5952"/>
<text text-anchor="middle" x="210.897" y="-226.348" font-family="Times,serif" font-size="14.00">EGFR</text>
</g>
<!-- KRAS -->
<g id="node2" class="node"><title>KRAS</title>
<ellipse fill="#ffc900" stroke="black" cx="138.897" cy="-230.048" rx="35.194" ry="35.194"/>
<text text-anchor="middle" x="138.897" y="-226.348" font-family="Times,serif" font-size="14.00">KRAS</text>
</g>
<!-- EGFR&#45;&gt;KRAS -->
<g id="edge1" class="edge"><title>EGFR&#45;&gt;KRAS</title>
<g id="a_edge1"><a xlink:href="/static/webserver/diseases/hypertension/EGFR-KRAS.html">
<path fill="none" stroke="black" d="M177.006,-230.048C176.896,-230.048 176.787,-230.048 176.677,-230.048"/>
<polygon fill="black" stroke="black" points="184.377,-226.548 174.377,-230.048 184.376,-233.548 184.377,-226.548"/>
</a>
</g>
</g>
<!-- IRS1 -->
<g id="node3" class="node"><title>IRS1</title>
<ellipse fill="#ffc600" stroke="black" cx="282.897" cy="-55.0479" rx="29.4969" ry="29.4969"/>
<text text-anchor="middle" x="282.897" y="-51.3479" font-family="Times,serif" font-size="14.00">IRS1</text>
</g>
<!-- IRS2 -->
<g id="node4" class="node"><title>IRS2</title>
<ellipse fill="#ffc600" stroke="black" cx="210.897" cy="-55.0479" rx="29.4969" ry="29.4969"/>
<text text-anchor="middle" x="210.897" y="-51.3479" font-family="Times,serif" font-size="14.00">IRS2</text>
</g>
<!-- IRS1&#45;&gt;IRS2 -->
<g id="edge2" class="edge"><title>IRS1&#45;&gt;IRS2</title>
<g id="a_edge2"><a xlink:href="/static/webserver/diseases/hypertension/IRS1-IRS2.html">
<path fill="none" stroke="black" d="M253.612,-55.0479C252.658,-55.0479 251.698,-55.0479 250.734,-55.0479"/>
<polygon fill="black" stroke="black" points="250.39,-51.548 240.39,-55.0479 250.39,-58.548 250.39,-51.548"/>
</a>
</g>
</g>
<!-- ACE -->
<g id="node5" class="node"><title>ACE</title>
<ellipse fill="#ffbc00" stroke="black" cx="306.897" cy="-393.048" rx="29.4969" ry="29.4969"/>
<text text-anchor="middle" x="306.897" y="-389.348" font-family="Times,serif" font-size="14.00">ACE</text>
</g>
<!-- II -->
<g id="node6" class="node"><title>II</title>
<ellipse fill="#ffbe00" stroke="black" cx="306.897" cy="-321.048" rx="18" ry="18"/>
<text text-anchor="middle" x="306.897" y="-317.348" font-family="Times,serif" font-size="14.00">II</text>
</g>
<!-- ACE&#45;&gt;II -->
<g id="edge3" class="edge"><title>ACE&#45;&gt;II</title>
<g id="a_edge3"><a xlink:href="/static/webserver/diseases/hypertension/ACE-II.html">
<path fill="none" stroke="black" d="M306.897,-363.763C306.897,-359.12 306.897,-354.323 306.897,-349.695"/>
<polygon fill="black" stroke="black" points="310.397,-349.356 306.897,-339.356 303.397,-349.356 310.397,-349.356"/>
</a>
</g>
</g>
<!-- F2 -->
<g id="node47" class="node"><title>F2</title>
<ellipse fill="#ffc900" stroke="black" cx="306.897" cy="-465.048" rx="20.2975" ry="20.2975"/>
<text text-anchor="middle" x="306.897" y="-461.348" font-family="Times,serif" font-size="14.00">F2</text>
</g>
<!-- ACE&#45;&gt;F2 -->
<g id="edge27" class="edge"><title>ACE&#45;&gt;F2</title>
<g id="a_edge27"><a xlink:href="/static/webserver/diseases/hypertension/ACE-F2.html">
<path fill="none" stroke="black" d="M306.897,-422.333C306.897,-426.304 306.897,-430.388 306.897,-434.383"/>
<polygon fill="black" stroke="black" points="303.397,-434.608 306.897,-444.608 310.397,-434.608 303.397,-434.608"/>
</a>
</g>
</g>
<!-- ABCA1 -->
<g id="node7" class="node"><title>ABCA1</title>
<ellipse fill="#ffc900" stroke="black" cx="202.897" cy="-443.048" rx="40.0939" ry="40.0939"/>
<text text-anchor="middle" x="202.897" y="-439.348" font-family="Times,serif" font-size="14.00">ABCA1</text>
</g>
<!-- ABCC1 -->
<g id="node8" class="node"><title>ABCC1</title>
<ellipse fill="#ffc900" stroke="black" cx="130.897" cy="-443.048" rx="40.0939" ry="40.0939"/>
<text text-anchor="middle" x="130.897" y="-439.348" font-family="Times,serif" font-size="14.00">ABCC1</text>
</g>
<!-- ABCA1&#45;&gt;ABCC1 -->
<g id="edge4" class="edge"><title>ABCA1&#45;&gt;ABCC1</title>
<g id="a_edge4"><a xlink:href="/static/webserver/diseases/hypertension/ABCA1-ABCC1.html">
<path fill="none" stroke="black" d="M162.268,-443.048C162.204,-443.048 162.141,-443.048 162.077,-443.048"/>
<polygon fill="black" stroke="black" points="171.887,-439.553 161.886,-443.048 171.884,-446.553 171.887,-439.553"/>
</a>
</g>
</g>
<!-- ACE2 -->
<g id="node9" class="node"><title>ACE2</title>
<ellipse fill="#ffc600" stroke="black" cx="306.897" cy="-177.048" rx="33.5952" ry="33.5952"/>
<text text-anchor="middle" x="306.897" y="-173.348" font-family="Times,serif" font-size="14.00">ACE2</text>
</g>
<!-- ACE2&#45;&gt;ACE -->
<g id="edge5" class="edge"><title>ACE2&#45;&gt;ACE</title>
<g id="a_edge5"><a xlink:href="/static/webserver/diseases/hypertension/ACE2-ACE.html">
<path fill="none" stroke="black" d="M306.897,-211.274C306.897,-249.903 306.897,-312.653 306.897,-353.387"/>
<polygon fill="black" stroke="black" points="303.397,-353.494 306.897,-363.494 310.397,-353.494 303.397,-353.494"/>
</a>
</g>
</g>
<!-- ANG -->
<g id="node20" class="node"><title>ANG</title>
<ellipse fill="#ffc600" stroke="black" cx="306.897" cy="-249.048" rx="30.5947" ry="30.5947"/>
<text text-anchor="middle" x="306.897" y="-245.348" font-family="Times,serif" font-size="14.00">ANG</text>
</g>
<!-- ACE2&#45;&gt;ANG -->
<g id="edge11" class="edge"><title>ACE2&#45;&gt;ANG</title>
<g id="a_edge11"><a xlink:href="/static/webserver/diseases/hypertension/ACE2-ANG.html">
<path fill="none" stroke="black" d="M306.897,-210.94C306.897,-211.095 306.897,-211.25 306.897,-211.405"/>
<polygon fill="black" stroke="black" points="303.397,-208.373 306.897,-218.373 310.397,-208.373 303.397,-208.373"/>
</a>
</g>
</g>
<!-- PVR -->
<g id="node10" class="node"><title>PVR</title>
<ellipse fill="#ffc900" stroke="black" cx="542.897" cy="-653.048" rx="28.6953" ry="28.6953"/>
<text text-anchor="middle" x="542.897" y="-649.348" font-family="Times,serif" font-size="14.00">PVR</text>
</g>
<!-- PAH -->
<g id="node11" class="node"><title>PAH</title>
<ellipse fill="#ffc900" stroke="black" cx="470.897" cy="-653.048" rx="29.4969" ry="29.4969"/>
<text text-anchor="middle" x="470.897" y="-649.348" font-family="Times,serif" font-size="14.00">PAH</text>
</g>
<!-- PVR&#45;&gt;PAH -->
<g id="edge6" class="edge"><title>PVR&#45;&gt;PAH</title>
<g id="a_edge6"><a xlink:href="/static/webserver/diseases/hypertension/PVR-PAH.html">
<path fill="none" stroke="black" d="M514.027,-653.048C512.892,-653.048 511.748,-653.048 510.599,-653.048"/>
<polygon fill="black" stroke="black" points="510.244,-649.548 500.244,-653.048 510.244,-656.548 510.244,-649.548"/>
</a>
</g>
</g>
<!-- AGT -->
<g id="node12" class="node"><title>AGT</title>
<ellipse fill="#ffc900" stroke="black" cx="334.897" cy="-640.048" rx="29.4969" ry="29.4969"/>
<text text-anchor="middle" x="334.897" y="-636.348" font-family="Times,serif" font-size="14.00">AGT</text>
</g>
<!-- TRH -->
<g id="node13" class="node"><title>TRH</title>
<ellipse fill="#ffc900" stroke="black" cx="262.897" cy="-640.048" rx="29.4969" ry="29.4969"/>
<text text-anchor="middle" x="262.897" y="-636.348" font-family="Times,serif" font-size="14.00">TRH</text>
</g>
<!-- AGT&#45;&gt;TRH -->
<g id="edge7" class="edge"><title>AGT&#45;&gt;TRH</title>
<g id="a_edge7"><a xlink:href="/static/webserver/diseases/hypertension/AGT-TRH.html">
<path fill="none" stroke="black" d="M305.612,-640.048C304.658,-640.048 303.698,-640.048 302.734,-640.048"/>
<polygon fill="black" stroke="black" points="302.39,-636.548 292.39,-640.048 302.39,-643.548 302.39,-636.548"/>
</a>
</g>
</g>
<!-- STAR -->
<g id="node14" class="node"><title>STAR</title>
<ellipse fill="#ffc900" stroke="black" cx="483.897" cy="-321.048" rx="33.5952" ry="33.5952"/>
<text text-anchor="middle" x="483.897" y="-317.348" font-family="Times,serif" font-size="14.00">STAR</text>
</g>
<!-- CYP11B2 -->
<g id="node15" class="node"><title>CYP11B2</title>
<ellipse fill="#ffc900" stroke="black" cx="411.897" cy="-321.048" rx="48.1917" ry="48.1917"/>
<text text-anchor="middle" x="411.897" y="-317.348" font-family="Times,serif" font-size="14.00">CYP11B2</text>
</g>
<!-- STAR&#45;&gt;CYP11B2 -->
<g id="edge8" class="edge"><title>STAR&#45;&gt;CYP11B2</title>
<g id="a_edge8"><a xlink:href="/static/webserver/diseases/hypertension/STAR-CYP11B2.html">
<path fill="none" stroke="black" d="M450.006,-321.048C449.933,-321.048 449.86,-321.048 449.787,-321.048"/>
<polygon fill="black" stroke="black" points="459.569,-317.552 449.568,-321.048 459.566,-324.552 459.569,-317.552"/>
</a>
</g>
</g>
<!-- NA -->
<g id="node16" class="node"><title>NA</title>
<ellipse fill="#ffc600" stroke="black" cx="428.897" cy="-24.0479" rx="24.0958" ry="24.0958"/>
<text text-anchor="middle" x="428.897" y="-20.3479" font-family="Times,serif" font-size="14.00">NA</text>
</g>
<!-- SI -->
<g id="node17" class="node"><title>SI</title>
<ellipse fill="#ffc600" stroke="black" cx="356.897" cy="-24.0479" rx="18.6979" ry="18.6979"/>
<text text-anchor="middle" x="356.897" y="-20.3479" font-family="Times,serif" font-size="14.00">SI</text>
</g>
<!-- NA&#45;&gt;SI -->
<g id="edge9" class="edge"><title>NA&#45;&gt;SI</title>
<g id="a_edge9"><a xlink:href="/static/webserver/diseases/hypertension/NA-SI.html">
<path fill="none" stroke="black" d="M404.521,-24.0479C398.708,-24.0479 392.441,-24.0479 386.424,-24.0479"/>
<polygon fill="black" stroke="black" points="386.015,-20.548 376.015,-24.0479 386.015,-27.548 386.015,-20.548"/>
</a>
</g>
</g>
<!-- GH1 -->
<g id="node18" class="node"><title>GH1</title>
<ellipse fill="#ffc600" stroke="black" cx="699.897" cy="-641.048" rx="28.6953" ry="28.6953"/>
<text text-anchor="middle" x="699.897" y="-637.348" font-family="Times,serif" font-size="14.00">GH1</text>
</g>
<!-- GHR -->
<g id="node19" class="node"><title>GHR</title>
<ellipse fill="#ffc600" stroke="black" cx="627.897" cy="-641.048" rx="29.795" ry="29.795"/>
<text text-anchor="middle" x="627.897" y="-637.348" font-family="Times,serif" font-size="14.00">GHR</text>
</g>
<!-- GH1&#45;&gt;GHR -->
<g id="edge10" class="edge"><title>GH1&#45;&gt;GHR</title>
<g id="a_edge10"><a xlink:href="/static/webserver/diseases/hypertension/GH1-GHR.html">
<path fill="none" stroke="black" d="M671.027,-641.048C670.103,-641.048 669.172,-641.048 668.237,-641.048"/>
<polygon fill="black" stroke="black" points="668.187,-637.548 658.187,-641.048 668.187,-644.548 668.187,-637.548"/>
</a>
</g>
</g>
<!-- ANG&#45;&gt;II -->
<g id="edge12" class="edge"><title>ANG&#45;&gt;II</title>
<g id="a_edge12"><a xlink:href="/static/webserver/diseases/hypertension/ANG-II.html">
<path fill="none" stroke="black" d="M306.897,-280C306.897,-284.131 306.897,-288.352 306.897,-292.44"/>
<polygon fill="black" stroke="black" points="303.397,-292.798 306.897,-302.798 310.397,-292.798 303.397,-292.798"/>
</a>
</g>
</g>
<!-- WNK1 -->
<g id="node21" class="node"><title>WNK1</title>
<ellipse fill="#ffc900" stroke="black" cx="654.897" cy="-128.048" rx="37.0935" ry="37.0935"/>
<text text-anchor="middle" x="654.897" y="-124.348" font-family="Times,serif" font-size="14.00">WNK1</text>
</g>
<!-- WNK4 -->
<g id="node22" class="node"><title>WNK4</title>
<ellipse fill="#ffc900" stroke="black" cx="582.897" cy="-128.048" rx="37.0935" ry="37.0935"/>
<text text-anchor="middle" x="582.897" y="-124.348" font-family="Times,serif" font-size="14.00">WNK4</text>
</g>
<!-- WNK1&#45;&gt;WNK4 -->
<g id="edge13" class="edge"><title>WNK1&#45;&gt;WNK4</title>
<g id="a_edge13"><a xlink:href="/static/webserver/diseases/hypertension/WNK1-WNK4.html">
<path fill="none" stroke="black" d="M617.632,-128.048C617.563,-128.048 617.495,-128.048 617.426,-128.048"/>
<polygon fill="black" stroke="black" points="627.222,-124.553 617.22,-128.048 627.219,-131.553 627.222,-124.553"/>
</a>
</g>
</g>
<!-- CUL3 -->
<g id="node23" class="node"><title>CUL3</title>
<ellipse fill="#ffc400" stroke="black" cx="215.897" cy="-339.048" rx="33.5952" ry="33.5952"/>
<text text-anchor="middle" x="215.897" y="-335.348" font-family="Times,serif" font-size="14.00">CUL3</text>
</g>
<!-- KLHL3 -->
<g id="node24" class="node"><title>KLHL3</title>
<ellipse fill="#ffc400" stroke="black" cx="143.897" cy="-339.048" rx="39.7935" ry="39.7935"/>
<text text-anchor="middle" x="143.897" y="-335.348" font-family="Times,serif" font-size="14.00">KLHL3</text>
</g>
<!-- CUL3&#45;&gt;KLHL3 -->
<g id="edge14" class="edge"><title>CUL3&#45;&gt;KLHL3</title>
<g id="a_edge14"><a xlink:href="/static/webserver/diseases/hypertension/CUL3-KLHL3.html">
<path fill="none" stroke="black" d="M182.006,-339.048C181.933,-339.048 181.86,-339.048 181.787,-339.048"/>
<polygon fill="black" stroke="black" points="191.569,-335.552 181.568,-339.048 191.566,-342.552 191.569,-335.552"/>
</a>
</g>
</g>
<!-- APC -->
<g id="node25" class="node"><title>APC</title>
<ellipse fill="#ffc900" stroke="black" cx="418.897" cy="-569.048" rx="28.6953" ry="28.6953"/>
<text text-anchor="middle" x="418.897" y="-565.348" font-family="Times,serif" font-size="14.00">APC</text>
</g>
<!-- HR -->
<g id="node26" class="node"><title>HR</title>
<ellipse fill="#ffc600" stroke="black" cx="418.897" cy="-497.048" rx="23.2963" ry="23.2963"/>
<text text-anchor="middle" x="418.897" y="-493.348" font-family="Times,serif" font-size="14.00">HR</text>
</g>
<!-- APC&#45;&gt;HR -->
<g id="edge15" class="edge"><title>APC&#45;&gt;HR</title>
<g id="a_edge15"><a xlink:href="/static/webserver/diseases/hypertension/APC-HR.html">
<path fill="none" stroke="black" d="M418.897,-540.178C418.897,-537.17 418.897,-534.093 418.897,-531.036"/>
<polygon fill="black" stroke="black" points="422.397,-530.845 418.897,-520.845 415.397,-530.845 422.397,-530.845"/>
</a>
</g>
</g>
<!-- SLC12A1 -->
<g id="node27" class="node"><title>SLC12A1</title>
<ellipse fill="#ffc900" stroke="black" cx="577.897" cy="-437.048" rx="47.3916" ry="47.3916"/>
<text text-anchor="middle" x="577.897" y="-433.348" font-family="Times,serif" font-size="14.00">SLC12A1</text>
</g>
<!-- KCNJ1 -->
<g id="node28" class="node"><title>KCNJ1</title>
<ellipse fill="#ffc900" stroke="black" cx="505.897" cy="-437.048" rx="38.1938" ry="38.1938"/>
<text text-anchor="middle" x="505.897" y="-433.348" font-family="Times,serif" font-size="14.00">KCNJ1</text>
</g>
<!-- SLC12A1&#45;&gt;KCNJ1 -->
<g id="edge16" class="edge"><title>SLC12A1&#45;&gt;KCNJ1</title>
<g id="a_edge16"><a xlink:href="/static/webserver/diseases/hypertension/SLC12A1-KCNJ1.html">
<path fill="none" stroke="black" d="M530.273,-437.048C530.221,-437.048 530.169,-437.048 530.116,-437.048"/>
<polygon fill="black" stroke="black" points="539.962,-433.554 529.96,-437.048 539.958,-440.554 539.962,-433.554"/>
</a>
</g>
</g>
<!-- TRPC1 -->
<g id="node29" class="node"><title>TRPC1</title>
<ellipse fill="#ffc900" stroke="black" cx="603.897" cy="-545.048" rx="38.1938" ry="38.1938"/>
<text text-anchor="middle" x="603.897" y="-541.348" font-family="Times,serif" font-size="14.00">TRPC1</text>
</g>
<!-- TRPC6 -->
<g id="node30" class="node"><title>TRPC6</title>
<ellipse fill="#ffc900" stroke="black" cx="531.897" cy="-545.048" rx="38.1938" ry="38.1938"/>
<text text-anchor="middle" x="531.897" y="-541.348" font-family="Times,serif" font-size="14.00">TRPC6</text>
</g>
<!-- TRPC1&#45;&gt;TRPC6 -->
<g id="edge17" class="edge"><title>TRPC1&#45;&gt;TRPC6</title>
<g id="a_edge17"><a xlink:href="/static/webserver/diseases/hypertension/TRPC1-TRPC6.html">
<path fill="none" stroke="black" d="M565.368,-545.048C565.301,-545.048 565.234,-545.048 565.167,-545.048"/>
<polygon fill="black" stroke="black" points="574.969,-541.553 564.967,-545.048 574.965,-548.553 574.969,-541.553"/>
</a>
</g>
</g>
<!-- ABCB1 -->
<g id="node31" class="node"><title>ABCB1</title>
<ellipse fill="#ffc900" stroke="black" cx="319.897" cy="-547.048" rx="40.0939" ry="40.0939"/>
<text text-anchor="middle" x="319.897" y="-543.348" font-family="Times,serif" font-size="14.00">ABCB1</text>
</g>
<!-- CYP3A -->
<g id="node32" class="node"><title>CYP3A</title>
<ellipse fill="#ffc900" stroke="black" cx="247.897" cy="-547.048" rx="39.7935" ry="39.7935"/>
<text text-anchor="middle" x="247.897" y="-543.348" font-family="Times,serif" font-size="14.00">CYP3A</text>
</g>
<!-- ABCB1&#45;&gt;CYP3A -->
<g id="edge18" class="edge"><title>ABCB1&#45;&gt;CYP3A</title>
<g id="a_edge18"><a xlink:href="/static/webserver/diseases/hypertension/ABCB1-CYP3A.html">
<path fill="none" stroke="black" d="M279.268,-547.048C279.204,-547.048 279.141,-547.048 279.077,-547.048"/>
<polygon fill="black" stroke="black" points="288.887,-543.553 278.886,-547.048 288.884,-550.553 288.887,-543.553"/>
</a>
</g>
</g>
<!-- RD -->
<g id="node33" class="node"><title>RD</title>
<ellipse fill="#ffc900" stroke="black" cx="101.897" cy="-56.0479" rx="23.2963" ry="23.2963"/>
<text text-anchor="middle" x="101.897" y="-52.3479" font-family="Times,serif" font-size="14.00">RD</text>
</g>
<!-- ACH -->
<g id="node34" class="node"><title>ACH</title>
<ellipse fill="#ffc900" stroke="black" cx="29.8973" cy="-56.0479" rx="29.795" ry="29.795"/>
<text text-anchor="middle" x="29.8973" y="-52.3479" font-family="Times,serif" font-size="14.00">ACH</text>
</g>
<!-- RD&#45;&gt;ACH -->
<g id="edge19" class="edge"><title>RD&#45;&gt;ACH</title>
<g id="a_edge19"><a xlink:href="/static/webserver/diseases/hypertension/RD-ACH.html">
<path fill="none" stroke="black" d="M78.3219,-56.0479C75.6458,-56.0479 72.8654,-56.0479 70.0506,-56.0479"/>
<polygon fill="black" stroke="black" points="69.8324,-52.548 59.8324,-56.0479 69.8323,-59.548 69.8324,-52.548"/>
</a>
</g>
</g>
<!-- SP1 -->
<g id="node35" class="node"><title>SP1</title>
<ellipse fill="#ffc900" stroke="black" cx="196.897" cy="-138.048" rx="25.1964" ry="25.1964"/>
<text text-anchor="middle" x="196.897" y="-134.348" font-family="Times,serif" font-size="14.00">SP1</text>
</g>
<!-- EGR1 -->
<g id="node36" class="node"><title>EGR1</title>
<ellipse fill="#ffc900" stroke="black" cx="124.897" cy="-138.048" rx="33.5952" ry="33.5952"/>
<text text-anchor="middle" x="124.897" y="-134.348" font-family="Times,serif" font-size="14.00">EGR1</text>
</g>
<!-- SP1&#45;&gt;EGR1 -->
<g id="edge20" class="edge"><title>SP1&#45;&gt;EGR1</title>
<g id="a_edge20"><a xlink:href="/static/webserver/diseases/hypertension/SP1-EGR1.html">
<path fill="none" stroke="black" d="M171.31,-138.048C170.552,-138.048 169.788,-138.048 169.018,-138.048"/>
<polygon fill="black" stroke="black" points="168.838,-134.548 158.838,-138.048 168.838,-141.548 168.838,-134.548"/>
</a>
</g>
</g>
<!-- AS -->
<g id="node37" class="node"><title>AS</title>
<ellipse fill="#ffc900" stroke="black" cx="614.897" cy="-36.0479" rx="22.1965" ry="22.1965"/>
<text text-anchor="middle" x="614.897" y="-32.3479" font-family="Times,serif" font-size="14.00">AS</text>
</g>
<!-- GC -->
<g id="node38" class="node"><title>GC</title>
<ellipse fill="#ffc900" stroke="black" cx="542.897" cy="-36.0479" rx="23.2963" ry="23.2963"/>
<text text-anchor="middle" x="542.897" y="-32.3479" font-family="Times,serif" font-size="14.00">GC</text>
</g>
<!-- AS&#45;&gt;GC -->
<g id="edge21" class="edge"><title>AS&#45;&gt;GC</title>
<g id="a_edge21"><a xlink:href="/static/webserver/diseases/hypertension/AS-GC.html">
<path fill="none" stroke="black" d="M592.511,-36.0479C587.48,-36.0479 582.033,-36.0479 576.653,-36.0479"/>
<polygon fill="black" stroke="black" points="576.516,-32.548 566.516,-36.0479 576.516,-39.548 576.516,-32.548"/>
</a>
</g>
</g>
<!-- NQO1 -->
<g id="node39" class="node"><title>NQO1</title>
<ellipse fill="#ffc900" stroke="black" cx="652.897" cy="-230.048" rx="35.194" ry="35.194"/>
<text text-anchor="middle" x="652.897" y="-226.348" font-family="Times,serif" font-size="14.00">NQO1</text>
</g>
<!-- SIRT1 -->
<g id="node40" class="node"><title>SIRT1</title>
<ellipse fill="#ffc900" stroke="black" cx="580.897" cy="-230.048" rx="35.194" ry="35.194"/>
<text text-anchor="middle" x="580.897" y="-226.348" font-family="Times,serif" font-size="14.00">SIRT1</text>
</g>
<!-- NQO1&#45;&gt;SIRT1 -->
<g id="edge22" class="edge"><title>NQO1&#45;&gt;SIRT1</title>
<g id="a_edge22"><a xlink:href="/static/webserver/diseases/hypertension/NQO1-SIRT1.html">
<path fill="none" stroke="black" d="M617.741,-230.048C617.598,-230.048 617.455,-230.048 617.313,-230.048"/>
<polygon fill="black" stroke="black" points="626.028,-226.549 616.027,-230.048 626.027,-233.549 626.028,-226.549"/>
</a>
</g>
</g>
<!-- DM -->
<g id="node41" class="node"><title>DM</title>
<ellipse fill="#ffc600" stroke="black" cx="156.897" cy="-532.048" rx="25.1964" ry="25.1964"/>
<text text-anchor="middle" x="156.897" y="-528.348" font-family="Times,serif" font-size="14.00">DM</text>
</g>
<!-- DI -->
<g id="node42" class="node"><title>DI</title>
<ellipse fill="#ffc600" stroke="black" cx="84.8973" cy="-532.048" rx="20.2975" ry="20.2975"/>
<text text-anchor="middle" x="84.8973" y="-528.348" font-family="Times,serif" font-size="14.00">DI</text>
</g>
<!-- DM&#45;&gt;DI -->
<g id="edge23" class="edge"><title>DM&#45;&gt;DI</title>
<g id="a_edge23"><a xlink:href="/static/webserver/diseases/hypertension/DM-DI.html">
<path fill="none" stroke="black" d="M132.119,-525.598C126.424,-525.284 120.313,-525.216 114.439,-525.395"/>
<polygon fill="black" stroke="black" points="114.044,-521.912 104.263,-525.984 114.449,-528.901 114.044,-521.912"/>
</a>
</g>
</g>
<!-- DI&#45;&gt;DM -->
<g id="edge24" class="edge"><title>DI&#45;&gt;DM</title>
<g id="a_edge24"><a xlink:href="/static/webserver/diseases/hypertension/DI-DM.html">
<path fill="none" stroke="black" d="M104.192,-538.105C109.689,-538.596 115.854,-538.826 121.977,-538.795"/>
<polygon fill="black" stroke="black" points="122.224,-542.29 132.117,-538.498 122.019,-535.293 122.224,-542.29"/>
</a>
</g>
</g>
<!-- CD68 -->
<g id="node43" class="node"><title>CD68</title>
<ellipse fill="#ffc900" stroke="black" cx="644.897" cy="-331.048" rx="32.4942" ry="32.4942"/>
<text text-anchor="middle" x="644.897" y="-327.348" font-family="Times,serif" font-size="14.00">CD68</text>
</g>
<!-- ED1 -->
<g id="node44" class="node"><title>ED1</title>
<ellipse fill="#ffc900" stroke="black" cx="572.897" cy="-331.048" rx="27.0966" ry="27.0966"/>
<text text-anchor="middle" x="572.897" y="-327.348" font-family="Times,serif" font-size="14.00">ED1</text>
</g>
<!-- CD68&#45;&gt;ED1 -->
<g id="edge25" class="edge"><title>CD68&#45;&gt;ED1</title>
<g id="a_edge25"><a xlink:href="/static/webserver/diseases/hypertension/CD68-ED1.html">
<path fill="none" stroke="black" d="M612.268,-331.048C611.64,-331.048 611.011,-331.048 610.381,-331.048"/>
<polygon fill="black" stroke="black" points="610.246,-327.548 600.246,-331.048 610.246,-334.548 610.246,-327.548"/>
</a>
</g>
</g>
<!-- VIP -->
<g id="node45" class="node"><title>VIP</title>
<ellipse fill="#ffc900" stroke="black" cx="158.897" cy="-620.048" rx="25.1964" ry="25.1964"/>
<text text-anchor="middle" x="158.897" y="-616.348" font-family="Times,serif" font-size="14.00">VIP</text>
</g>
<!-- COPD -->
<g id="node46" class="node"><title>COPD</title>
<ellipse fill="#ffc900" stroke="black" cx="86.8973" cy="-620.048" rx="35.194" ry="35.194"/>
<text text-anchor="middle" x="86.8973" y="-616.348" font-family="Times,serif" font-size="14.00">COPD</text>
</g>
<!-- VIP&#45;&gt;COPD -->
<g id="edge26" class="edge"><title>VIP&#45;&gt;COPD</title>
<g id="a_edge26"><a xlink:href="/static/webserver/diseases/hypertension/VIP-COPD.html">
<path fill="none" stroke="black" d="M133.31,-620.048C132.969,-620.048 132.627,-620.048 132.283,-620.048"/>
<polygon fill="black" stroke="black" points="132.098,-616.548 122.098,-620.048 132.098,-623.548 132.098,-616.548"/>
</a>
</g>
</g>
<!-- CP -->
<g id="node48" class="node"><title>CP</title>
<ellipse fill="#ffc900" stroke="black" cx="418.897" cy="-425.048" rx="22.1965" ry="22.1965"/>
<text text-anchor="middle" x="418.897" y="-421.348" font-family="Times,serif" font-size="14.00">CP</text>
</g>
<!-- CP&#45;&gt;HR -->
<g id="edge28" class="edge"><title>CP&#45;&gt;HR</title>
<g id="a_edge28"><a xlink:href="/static/webserver/diseases/hypertension/CP-HR.html">
<path fill="none" stroke="black" d="M418.897,-447.434C418.897,-452.466 418.897,-457.913 418.897,-463.293"/>
<polygon fill="black" stroke="black" points="415.397,-463.429 418.897,-473.429 422.397,-463.429 415.397,-463.429"/>
</a>
</g>
</g>
<!-- RAMP3 -->
<g id="node49" class="node"><title>RAMP3</title>
<ellipse fill="#ffc900" stroke="black" cx="476.897" cy="-210.048" rx="40.8928" ry="40.8928"/>
<text text-anchor="middle" x="476.897" y="-206.348" font-family="Times,serif" font-size="14.00">RAMP3</text>
</g>
<!-- RAMP2 -->
<g id="node50" class="node"><title>RAMP2</title>
<ellipse fill="#ffc900" stroke="black" cx="404.897" cy="-210.048" rx="40.8928" ry="40.8928"/>
<text text-anchor="middle" x="404.897" y="-206.348" font-family="Times,serif" font-size="14.00">RAMP2</text>
</g>
<!-- RAMP3&#45;&gt;RAMP2 -->
<g id="edge29" class="edge"><title>RAMP3&#45;&gt;RAMP2</title>
<g id="a_edge29"><a xlink:href="/static/webserver/diseases/hypertension/RAMP3-RAMP2.html">
<path fill="none" stroke="black" d="M435.85,-210.048C435.787,-210.048 435.723,-210.048 435.66,-210.048"/>
<polygon fill="black" stroke="black" points="445.473,-206.553 435.471,-210.048 445.469,-213.553 445.473,-206.553"/>
</a>
</g>
</g>
<!-- CLI -->
<g id="node51" class="node"><title>CLI</title>
<ellipse fill="#ffc600" stroke="black" cx="467.897" cy="-110.048" rx="25.1964" ry="25.1964"/>
<text text-anchor="middle" x="467.897" y="-106.348" font-family="Times,serif" font-size="14.00">CLI</text>
</g>
<!-- MVD -->
<g id="node52" class="node"><title>MVD</title>
<ellipse fill="#ffc600" stroke="black" cx="395.897" cy="-110.048" rx="31.6951" ry="31.6951"/>
<text text-anchor="middle" x="395.897" y="-106.348" font-family="Times,serif" font-size="14.00">MVD</text>
</g>
<!-- CLI&#45;&gt;MVD -->
<g id="edge30" class="edge"><title>CLI&#45;&gt;MVD</title>
<g id="a_edge30"><a xlink:href="/static/webserver/diseases/hypertension/CLI-MVD.html">
<path fill="none" stroke="black" d="M443.119,-103.598C441.197,-103.492 439.228,-103.414 437.236,-103.364"/>
<polygon fill="black" stroke="black" points="437.213,-99.8643 427.208,-103.349 437.202,-106.864 437.213,-99.8643"/>
</a>
</g>
</g>
<!-- MVD&#45;&gt;CLI -->
<g id="edge31" class="edge"><title>MVD&#45;&gt;CLI</title>
<g id="a_edge31"><a xlink:href="/static/webserver/diseases/hypertension/MVD-CLI.html">
<path fill="none" stroke="black" d="M427.268,-116.748C429.175,-116.789 431.099,-116.805 433.019,-116.795"/>
<polygon fill="black" stroke="black" points="433.23,-120.29 443.122,-116.497 433.023,-113.293 433.23,-120.29"/>
</a>
</g>
</g>
</g>
</svg>
