<?xml version="1.0" encoding="UTF-8" standalone="no"?>
<!DOCTYPE svg PUBLIC "-//W3C//DTD SVG 1.1//EN"
 "http://www.w3.org/Graphics/SVG/1.1/DTD/svg11.dtd">
<!-- Generated by graphviz version 2.34.0 (20130907.0228)
 -->
<!-- Title: G Pages: 1 -->
<svg width="757pt" height="689pt"
 viewBox="0.00 0.00 757.25 689.34" xmlns="http://www.w3.org/2000/svg" xmlns:xlink="http://www.w3.org/1999/xlink">
<g id="graph0" class="graph" transform="scale(1 1) rotate(0) translate(4 685.344)">
<title>G</title>
<polygon fill="white" stroke="white" points="-4,4 -4,-685.344 753.245,-685.344 753.245,4 -4,4"/>
<!-- IRS1 -->
<g id="node1" class="node"><title>IRS1</title>
<ellipse fill="#ffc700" stroke="black" cx="412.847" cy="-29.2474" rx="29.4969" ry="29.4969"/>
<text text-anchor="middle" x="412.847" y="-25.5474" font-family="Times,serif" font-size="14.00">IRS1</text>
</g>
<!-- IRS2 -->
<g id="node2" class="node"><title>IRS2</title>
<ellipse fill="#ffc700" stroke="black" cx="340.847" cy="-29.2474" rx="29.4969" ry="29.4969"/>
<text text-anchor="middle" x="340.847" y="-25.5474" font-family="Times,serif" font-size="14.00">IRS2</text>
</g>
<!-- IRS1&#45;&gt;IRS2 -->
<g id="edge1" class="edge"><title>IRS1&#45;&gt;IRS2</title>
<g id="a_edge1"><a xlink:href="/static/webserver/diseases/hypertension/IRS1-IRS2.html">
<path fill="none" stroke="black" d="M383.562,-29.2474C382.608,-29.2474 381.648,-29.2474 380.684,-29.2474"/>
<polygon fill="black" stroke="black" points="380.34,-25.7475 370.34,-29.2474 380.34,-32.7475 380.34,-25.7475"/>
</a>
</g>
</g>
<!-- ACE -->
<g id="node3" class="node"><title>ACE</title>
<ellipse fill="#ffbf00" stroke="black" cx="293.847" cy="-393.247" rx="29.4969" ry="29.4969"/>
<text text-anchor="middle" x="293.847" y="-389.547" font-family="Times,serif" font-size="14.00">ACE</text>
</g>
<!-- II -->
<g id="node4" class="node"><title>II</title>
<ellipse fill="#ffbf00" stroke="black" cx="293.847" cy="-321.247" rx="18" ry="18"/>
<text text-anchor="middle" x="293.847" y="-317.547" font-family="Times,serif" font-size="14.00">II</text>
</g>
<!-- ACE&#45;&gt;II -->
<g id="edge2" class="edge"><title>ACE&#45;&gt;II</title>
<g id="a_edge2"><a xlink:href="/static/webserver/diseases/hypertension/ACE-II.html">
<path fill="none" stroke="black" d="M293.847,-363.962C293.847,-359.32 293.847,-354.522 293.847,-349.894"/>
<polygon fill="black" stroke="black" points="297.347,-349.556 293.847,-339.556 290.347,-349.556 297.347,-349.556"/>
</a>
</g>
</g>
<!-- F2 -->
<g id="node45" class="node"><title>F2</title>
<ellipse fill="#ffc900" stroke="black" cx="293.847" cy="-465.247" rx="20.2975" ry="20.2975"/>
<text text-anchor="middle" x="293.847" y="-461.547" font-family="Times,serif" font-size="14.00">F2</text>
</g>
<!-- ACE&#45;&gt;F2 -->
<g id="edge26" class="edge"><title>ACE&#45;&gt;F2</title>
<g id="a_edge26"><a xlink:href="/static/webserver/diseases/hypertension/ACE-F2.html">
<path fill="none" stroke="black" d="M293.847,-422.533C293.847,-426.504 293.847,-430.588 293.847,-434.582"/>
<polygon fill="black" stroke="black" points="290.347,-434.808 293.847,-444.808 297.347,-434.808 290.347,-434.808"/>
</a>
</g>
</g>
<!-- ABCA1 -->
<g id="node5" class="node"><title>ABCA1</title>
<ellipse fill="#ffc900" stroke="black" cx="189.847" cy="-586.247" rx="40.0939" ry="40.0939"/>
<text text-anchor="middle" x="189.847" y="-582.547" font-family="Times,serif" font-size="14.00">ABCA1</text>
</g>
<!-- ABCC1 -->
<g id="node6" class="node"><title>ABCC1</title>
<ellipse fill="#ffc900" stroke="black" cx="117.847" cy="-586.247" rx="40.0939" ry="40.0939"/>
<text text-anchor="middle" x="117.847" y="-582.547" font-family="Times,serif" font-size="14.00">ABCC1</text>
</g>
<!-- ABCA1&#45;&gt;ABCC1 -->
<g id="edge3" class="edge"><title>ABCA1&#45;&gt;ABCC1</title>
<g id="a_edge3"><a xlink:href="/static/webserver/diseases/hypertension/ABCA1-ABCC1.html">
<path fill="none" stroke="black" d="M149.218,-586.247C149.154,-586.247 149.09,-586.247 149.027,-586.247"/>
<polygon fill="black" stroke="black" points="158.837,-582.753 148.835,-586.247 158.834,-589.753 158.837,-582.753"/>
</a>
</g>
</g>
<!-- TXNIP -->
<g id="node7" class="node"><title>TXNIP</title>
<ellipse fill="#ffc400" stroke="black" cx="200.847" cy="-155.247" rx="37.8943" ry="37.8943"/>
<text text-anchor="middle" x="200.847" y="-151.547" font-family="Times,serif" font-size="14.00">TXNIP</text>
</g>
<!-- TXNIP&#45;&gt;TXNIP -->
<g id="edge5" class="edge"><title>TXNIP&#45;&gt;TXNIP</title>
<g id="a_edge5"><a xlink:href="/static/webserver/diseases/hypertension/TXNIP-TXNIP.html">
<path fill="none" stroke="black" d="M238.068,-161.964C248.521,-161.67 256.544,-159.431 256.544,-155.247 256.544,-152.567 253.251,-150.685 248.136,-149.601"/>
<polygon fill="black" stroke="black" points="248.382,-146.108 238.068,-148.531 247.642,-153.069 248.382,-146.108"/>
</a>
</g>
</g>
<!-- NLRP3 -->
<g id="node8" class="node"><title>NLRP3</title>
<ellipse fill="#ffc900" stroke="black" cx="128.847" cy="-155.247" rx="38.1938" ry="38.1938"/>
<text text-anchor="middle" x="128.847" y="-151.547" font-family="Times,serif" font-size="14.00">NLRP3</text>
</g>
<!-- TXNIP&#45;&gt;NLRP3 -->
<g id="edge4" class="edge"><title>TXNIP&#45;&gt;NLRP3</title>
<g id="a_edge4"><a xlink:href="/static/webserver/diseases/hypertension/TXNIP-NLRP3.html">
<path fill="none" stroke="black" d="M162.739,-155.247C162.671,-155.247 162.604,-155.247 162.537,-155.247"/>
<polygon fill="black" stroke="black" points="172.336,-151.752 162.334,-155.247 172.332,-158.752 172.336,-151.752"/>
</a>
</g>
</g>
<!-- AGT -->
<g id="node9" class="node"><title>AGT</title>
<ellipse fill="#ffc900" stroke="black" cx="568.847" cy="-29.2474" rx="29.4969" ry="29.4969"/>
<text text-anchor="middle" x="568.847" y="-25.5474" font-family="Times,serif" font-size="14.00">AGT</text>
</g>
<!-- TRH -->
<g id="node10" class="node"><title>TRH</title>
<ellipse fill="#ffc900" stroke="black" cx="496.847" cy="-29.2474" rx="29.4969" ry="29.4969"/>
<text text-anchor="middle" x="496.847" y="-25.5474" font-family="Times,serif" font-size="14.00">TRH</text>
</g>
<!-- AGT&#45;&gt;TRH -->
<g id="edge6" class="edge"><title>AGT&#45;&gt;TRH</title>
<g id="a_edge6"><a xlink:href="/static/webserver/diseases/hypertension/AGT-TRH.html">
<path fill="none" stroke="black" d="M539.562,-29.2474C538.608,-29.2474 537.648,-29.2474 536.684,-29.2474"/>
<polygon fill="black" stroke="black" points="536.34,-25.7475 526.34,-29.2474 536.34,-32.7475 536.34,-25.7475"/>
</a>
</g>
</g>
<!-- STAR -->
<g id="node11" class="node"><title>STAR</title>
<ellipse fill="#ffc900" stroke="black" cx="548.847" cy="-243.247" rx="33.5952" ry="33.5952"/>
<text text-anchor="middle" x="548.847" y="-239.547" font-family="Times,serif" font-size="14.00">STAR</text>
</g>
<!-- CYP11B2 -->
<g id="node12" class="node"><title>CYP11B2</title>
<ellipse fill="#ffc900" stroke="black" cx="476.847" cy="-243.247" rx="48.1917" ry="48.1917"/>
<text text-anchor="middle" x="476.847" y="-239.547" font-family="Times,serif" font-size="14.00">CYP11B2</text>
</g>
<!-- STAR&#45;&gt;CYP11B2 -->
<g id="edge7" class="edge"><title>STAR&#45;&gt;CYP11B2</title>
<g id="a_edge7"><a xlink:href="/static/webserver/diseases/hypertension/STAR-CYP11B2.html">
<path fill="none" stroke="black" d="M514.955,-243.247C514.883,-243.247 514.81,-243.247 514.737,-243.247"/>
<polygon fill="black" stroke="black" points="524.519,-239.752 514.518,-243.247 524.516,-246.752 524.519,-239.752"/>
</a>
</g>
</g>
<!-- NA -->
<g id="node13" class="node"><title>NA</title>
<ellipse fill="#ffc700" stroke="black" cx="714.847" cy="-388.247" rx="24.0958" ry="24.0958"/>
<text text-anchor="middle" x="714.847" y="-384.547" font-family="Times,serif" font-size="14.00">NA</text>
</g>
<!-- SI -->
<g id="node14" class="node"><title>SI</title>
<ellipse fill="#ffc700" stroke="black" cx="642.847" cy="-388.247" rx="18.6979" ry="18.6979"/>
<text text-anchor="middle" x="642.847" y="-384.547" font-family="Times,serif" font-size="14.00">SI</text>
</g>
<!-- NA&#45;&gt;SI -->
<g id="edge8" class="edge"><title>NA&#45;&gt;SI</title>
<g id="a_edge8"><a xlink:href="/static/webserver/diseases/hypertension/NA-SI.html">
<path fill="none" stroke="black" d="M690.471,-388.247C684.658,-388.247 678.391,-388.247 672.374,-388.247"/>
<polygon fill="black" stroke="black" points="671.965,-384.748 661.965,-388.247 671.965,-391.748 671.965,-384.748"/>
</a>
</g>
</g>
<!-- GH1 -->
<g id="node15" class="node"><title>GH1</title>
<ellipse fill="#ffc700" stroke="black" cx="712.847" cy="-225.247" rx="28.6953" ry="28.6953"/>
<text text-anchor="middle" x="712.847" y="-221.547" font-family="Times,serif" font-size="14.00">GH1</text>
</g>
<!-- GHR -->
<g id="node16" class="node"><title>GHR</title>
<ellipse fill="#ffc700" stroke="black" cx="640.847" cy="-225.247" rx="29.795" ry="29.795"/>
<text text-anchor="middle" x="640.847" y="-221.547" font-family="Times,serif" font-size="14.00">GHR</text>
</g>
<!-- GH1&#45;&gt;GHR -->
<g id="edge9" class="edge"><title>GH1&#45;&gt;GHR</title>
<g id="a_edge9"><a xlink:href="/static/webserver/diseases/hypertension/GH1-GHR.html">
<path fill="none" stroke="black" d="M683.977,-225.247C683.053,-225.247 682.122,-225.247 681.187,-225.247"/>
<polygon fill="black" stroke="black" points="681.137,-221.747 671.137,-225.247 681.137,-228.747 681.137,-221.747"/>
</a>
</g>
</g>
<!-- ACE2 -->
<g id="node17" class="node"><title>ACE2</title>
<ellipse fill="#ffc900" stroke="black" cx="293.847" cy="-177.247" rx="33.5952" ry="33.5952"/>
<text text-anchor="middle" x="293.847" y="-173.547" font-family="Times,serif" font-size="14.00">ACE2</text>
</g>
<!-- ANG -->
<g id="node18" class="node"><title>ANG</title>
<ellipse fill="#ffc700" stroke="black" cx="293.847" cy="-249.247" rx="30.5947" ry="30.5947"/>
<text text-anchor="middle" x="293.847" y="-245.547" font-family="Times,serif" font-size="14.00">ANG</text>
</g>
<!-- ACE2&#45;&gt;ANG -->
<g id="edge10" class="edge"><title>ACE2&#45;&gt;ANG</title>
<g id="a_edge10"><a xlink:href="/static/webserver/diseases/hypertension/ACE2-ANG.html">
<path fill="none" stroke="black" d="M293.847,-211.139C293.847,-211.294 293.847,-211.449 293.847,-211.604"/>
<polygon fill="black" stroke="black" points="290.347,-208.573 293.847,-218.573 297.347,-208.573 290.347,-208.573"/>
</a>
</g>
</g>
<!-- ANG&#45;&gt;II -->
<g id="edge11" class="edge"><title>ANG&#45;&gt;II</title>
<g id="a_edge11"><a xlink:href="/static/webserver/diseases/hypertension/ANG-II.html">
<path fill="none" stroke="black" d="M293.847,-280.2C293.847,-284.33 293.847,-288.551 293.847,-292.64"/>
<polygon fill="black" stroke="black" points="290.347,-292.997 293.847,-302.997 297.347,-292.997 290.347,-292.997"/>
</a>
</g>
</g>
<!-- WNK1 -->
<g id="node19" class="node"><title>WNK1</title>
<ellipse fill="#ffc900" stroke="black" cx="628.847" cy="-128.247" rx="37.0935" ry="37.0935"/>
<text text-anchor="middle" x="628.847" y="-124.547" font-family="Times,serif" font-size="14.00">WNK1</text>
</g>
<!-- WNK4 -->
<g id="node20" class="node"><title>WNK4</title>
<ellipse fill="#ffc900" stroke="black" cx="556.847" cy="-128.247" rx="37.0935" ry="37.0935"/>
<text text-anchor="middle" x="556.847" y="-124.547" font-family="Times,serif" font-size="14.00">WNK4</text>
</g>
<!-- WNK1&#45;&gt;WNK4 -->
<g id="edge12" class="edge"><title>WNK1&#45;&gt;WNK4</title>
<g id="a_edge12"><a xlink:href="/static/webserver/diseases/hypertension/WNK1-WNK4.html">
<path fill="none" stroke="black" d="M591.582,-128.247C591.513,-128.247 591.445,-128.247 591.376,-128.247"/>
<polygon fill="black" stroke="black" points="601.172,-124.752 591.17,-128.247 601.168,-131.752 601.172,-124.752"/>
</a>
</g>
</g>
<!-- CUL3 -->
<g id="node21" class="node"><title>CUL3</title>
<ellipse fill="#ffc400" stroke="black" cx="202.847" cy="-261.247" rx="33.5952" ry="33.5952"/>
<text text-anchor="middle" x="202.847" y="-257.547" font-family="Times,serif" font-size="14.00">CUL3</text>
</g>
<!-- KLHL3 -->
<g id="node22" class="node"><title>KLHL3</title>
<ellipse fill="#ffc400" stroke="black" cx="130.847" cy="-261.247" rx="39.7935" ry="39.7935"/>
<text text-anchor="middle" x="130.847" y="-257.547" font-family="Times,serif" font-size="14.00">KLHL3</text>
</g>
<!-- CUL3&#45;&gt;KLHL3 -->
<g id="edge13" class="edge"><title>CUL3&#45;&gt;KLHL3</title>
<g id="a_edge13"><a xlink:href="/static/webserver/diseases/hypertension/CUL3-KLHL3.html">
<path fill="none" stroke="black" d="M168.955,-261.247C168.883,-261.247 168.81,-261.247 168.737,-261.247"/>
<polygon fill="black" stroke="black" points="178.519,-257.752 168.518,-261.247 178.516,-264.752 178.519,-257.752"/>
</a>
</g>
</g>
<!-- APC -->
<g id="node23" class="node"><title>APC</title>
<ellipse fill="#ffc900" stroke="black" cx="379.847" cy="-439.247" rx="28.6953" ry="28.6953"/>
<text text-anchor="middle" x="379.847" y="-435.547" font-family="Times,serif" font-size="14.00">APC</text>
</g>
<!-- HR -->
<g id="node24" class="node"><title>HR</title>
<ellipse fill="#ffc700" stroke="black" cx="379.847" cy="-367.247" rx="23.2963" ry="23.2963"/>
<text text-anchor="middle" x="379.847" y="-363.547" font-family="Times,serif" font-size="14.00">HR</text>
</g>
<!-- APC&#45;&gt;HR -->
<g id="edge14" class="edge"><title>APC&#45;&gt;HR</title>
<g id="a_edge14"><a xlink:href="/static/webserver/diseases/hypertension/APC-HR.html">
<path fill="none" stroke="black" d="M379.847,-410.377C379.847,-407.37 379.847,-404.293 379.847,-401.235"/>
<polygon fill="black" stroke="black" points="383.347,-401.044 379.847,-391.044 376.347,-401.044 383.347,-401.044"/>
</a>
</g>
</g>
<!-- SLC12A1 -->
<g id="node25" class="node"><title>SLC12A1</title>
<ellipse fill="#ffc900" stroke="black" cx="551.847" cy="-372.247" rx="47.3916" ry="47.3916"/>
<text text-anchor="middle" x="551.847" y="-368.547" font-family="Times,serif" font-size="14.00">SLC12A1</text>
</g>
<!-- KCNJ1 -->
<g id="node26" class="node"><title>KCNJ1</title>
<ellipse fill="#ffc900" stroke="black" cx="479.847" cy="-372.247" rx="38.1938" ry="38.1938"/>
<text text-anchor="middle" x="479.847" y="-368.547" font-family="Times,serif" font-size="14.00">KCNJ1</text>
</g>
<!-- SLC12A1&#45;&gt;KCNJ1 -->
<g id="edge15" class="edge"><title>SLC12A1&#45;&gt;KCNJ1</title>
<g id="a_edge15"><a xlink:href="/static/webserver/diseases/hypertension/SLC12A1-KCNJ1.html">
<path fill="none" stroke="black" d="M504.223,-372.247C504.171,-372.247 504.119,-372.247 504.066,-372.247"/>
<polygon fill="black" stroke="black" points="513.912,-368.754 503.91,-372.247 513.907,-375.754 513.912,-368.754"/>
</a>
</g>
</g>
<!-- TRPC1 -->
<g id="node27" class="node"><title>TRPC1</title>
<ellipse fill="#ffc900" stroke="black" cx="369.847" cy="-545.247" rx="38.1938" ry="38.1938"/>
<text text-anchor="middle" x="369.847" y="-541.547" font-family="Times,serif" font-size="14.00">TRPC1</text>
</g>
<!-- TRPC6 -->
<g id="node28" class="node"><title>TRPC6</title>
<ellipse fill="#ffc900" stroke="black" cx="297.847" cy="-545.247" rx="38.1938" ry="38.1938"/>
<text text-anchor="middle" x="297.847" y="-541.547" font-family="Times,serif" font-size="14.00">TRPC6</text>
</g>
<!-- TRPC1&#45;&gt;TRPC6 -->
<g id="edge16" class="edge"><title>TRPC1&#45;&gt;TRPC6</title>
<g id="a_edge16"><a xlink:href="/static/webserver/diseases/hypertension/TRPC1-TRPC6.html">
<path fill="none" stroke="black" d="M331.318,-545.247C331.251,-545.247 331.184,-545.247 331.117,-545.247"/>
<polygon fill="black" stroke="black" points="340.918,-541.752 330.917,-545.247 340.915,-548.752 340.918,-541.752"/>
</a>
</g>
</g>
<!-- ABCB1 -->
<g id="node29" class="node"><title>ABCB1</title>
<ellipse fill="#ffc900" stroke="black" cx="631.847" cy="-586.247" rx="40.0939" ry="40.0939"/>
<text text-anchor="middle" x="631.847" y="-582.547" font-family="Times,serif" font-size="14.00">ABCB1</text>
</g>
<!-- CYP3A -->
<g id="node30" class="node"><title>CYP3A</title>
<ellipse fill="#ffc900" stroke="black" cx="559.847" cy="-586.247" rx="39.7935" ry="39.7935"/>
<text text-anchor="middle" x="559.847" y="-582.547" font-family="Times,serif" font-size="14.00">CYP3A</text>
</g>
<!-- ABCB1&#45;&gt;CYP3A -->
<g id="edge17" class="edge"><title>ABCB1&#45;&gt;CYP3A</title>
<g id="a_edge17"><a xlink:href="/static/webserver/diseases/hypertension/ABCB1-CYP3A.html">
<path fill="none" stroke="black" d="M591.218,-586.247C591.154,-586.247 591.09,-586.247 591.027,-586.247"/>
<polygon fill="black" stroke="black" points="600.837,-582.753 590.835,-586.247 600.834,-589.753 600.837,-582.753"/>
</a>
</g>
</g>
<!-- RD -->
<g id="node31" class="node"><title>RD</title>
<ellipse fill="#ffc900" stroke="black" cx="725.847" cy="-30.2474" rx="23.2963" ry="23.2963"/>
<text text-anchor="middle" x="725.847" y="-26.5474" font-family="Times,serif" font-size="14.00">RD</text>
</g>
<!-- ACH -->
<g id="node32" class="node"><title>ACH</title>
<ellipse fill="#ffc900" stroke="black" cx="653.847" cy="-30.2474" rx="29.795" ry="29.795"/>
<text text-anchor="middle" x="653.847" y="-26.5474" font-family="Times,serif" font-size="14.00">ACH</text>
</g>
<!-- RD&#45;&gt;ACH -->
<g id="edge18" class="edge"><title>RD&#45;&gt;ACH</title>
<g id="a_edge18"><a xlink:href="/static/webserver/diseases/hypertension/RD-ACH.html">
<path fill="none" stroke="black" d="M702.272,-30.2474C699.596,-30.2474 696.815,-30.2474 694,-30.2474"/>
<polygon fill="black" stroke="black" points="693.782,-26.7475 683.782,-30.2474 693.782,-33.7475 693.782,-26.7475"/>
</a>
</g>
</g>
<!-- SP1 -->
<g id="node33" class="node"><title>SP1</title>
<ellipse fill="#ffc900" stroke="black" cx="261.847" cy="-60.2474" rx="25.1964" ry="25.1964"/>
<text text-anchor="middle" x="261.847" y="-56.5474" font-family="Times,serif" font-size="14.00">SP1</text>
</g>
<!-- EGR1 -->
<g id="node34" class="node"><title>EGR1</title>
<ellipse fill="#ffc900" stroke="black" cx="189.847" cy="-60.2474" rx="33.5952" ry="33.5952"/>
<text text-anchor="middle" x="189.847" y="-56.5474" font-family="Times,serif" font-size="14.00">EGR1</text>
</g>
<!-- SP1&#45;&gt;EGR1 -->
<g id="edge19" class="edge"><title>SP1&#45;&gt;EGR1</title>
<g id="a_edge19"><a xlink:href="/static/webserver/diseases/hypertension/SP1-EGR1.html">
<path fill="none" stroke="black" d="M236.26,-60.2474C235.502,-60.2474 234.737,-60.2474 233.968,-60.2474"/>
<polygon fill="black" stroke="black" points="233.788,-56.7475 223.788,-60.2474 233.788,-63.7475 233.788,-56.7475"/>
</a>
</g>
</g>
<!-- AS -->
<g id="node35" class="node"><title>AS</title>
<ellipse fill="#ffc900" stroke="black" cx="198.847" cy="-499.247" rx="22.1965" ry="22.1965"/>
<text text-anchor="middle" x="198.847" y="-495.547" font-family="Times,serif" font-size="14.00">AS</text>
</g>
<!-- GC -->
<g id="node36" class="node"><title>GC</title>
<ellipse fill="#ffc400" stroke="black" cx="198.847" cy="-427.247" rx="23.2963" ry="23.2963"/>
<text text-anchor="middle" x="198.847" y="-423.547" font-family="Times,serif" font-size="14.00">GC</text>
</g>
<!-- AS&#45;&gt;GC -->
<g id="edge20" class="edge"><title>AS&#45;&gt;GC</title>
<g id="a_edge20"><a xlink:href="/static/webserver/diseases/hypertension/AS-GC.html">
<path fill="none" stroke="black" d="M198.847,-476.861C198.847,-471.83 198.847,-466.383 198.847,-461.003"/>
<polygon fill="black" stroke="black" points="202.347,-460.866 198.847,-450.867 195.347,-460.867 202.347,-460.866"/>
</a>
</g>
</g>
<!-- NQO1 -->
<g id="node37" class="node"><title>NQO1</title>
<ellipse fill="#ffc900" stroke="black" cx="457.847" cy="-646.247" rx="35.194" ry="35.194"/>
<text text-anchor="middle" x="457.847" y="-642.547" font-family="Times,serif" font-size="14.00">NQO1</text>
</g>
<!-- SIRT1 -->
<g id="node38" class="node"><title>SIRT1</title>
<ellipse fill="#ffc900" stroke="black" cx="385.847" cy="-646.247" rx="35.194" ry="35.194"/>
<text text-anchor="middle" x="385.847" y="-642.547" font-family="Times,serif" font-size="14.00">SIRT1</text>
</g>
<!-- NQO1&#45;&gt;SIRT1 -->
<g id="edge21" class="edge"><title>NQO1&#45;&gt;SIRT1</title>
<g id="a_edge21"><a xlink:href="/static/webserver/diseases/hypertension/NQO1-SIRT1.html">
<path fill="none" stroke="black" d="M422.691,-646.247C422.548,-646.247 422.405,-646.247 422.262,-646.247"/>
<polygon fill="black" stroke="black" points="430.977,-642.748 420.977,-646.247 430.977,-649.748 430.977,-642.748"/>
</a>
</g>
</g>
<!-- DM -->
<g id="node39" class="node"><title>DM</title>
<ellipse fill="#ffc700" stroke="black" cx="715.847" cy="-311.247" rx="25.1964" ry="25.1964"/>
<text text-anchor="middle" x="715.847" y="-307.547" font-family="Times,serif" font-size="14.00">DM</text>
</g>
<!-- DI -->
<g id="node40" class="node"><title>DI</title>
<ellipse fill="#ffc700" stroke="black" cx="643.847" cy="-311.247" rx="20.2975" ry="20.2975"/>
<text text-anchor="middle" x="643.847" y="-307.547" font-family="Times,serif" font-size="14.00">DI</text>
</g>
<!-- DM&#45;&gt;DI -->
<g id="edge22" class="edge"><title>DM&#45;&gt;DI</title>
<g id="a_edge22"><a xlink:href="/static/webserver/diseases/hypertension/DM-DI.html">
<path fill="none" stroke="black" d="M691.069,-304.798C685.374,-304.483 679.263,-304.416 673.389,-304.595"/>
<polygon fill="black" stroke="black" points="672.994,-301.112 663.213,-305.184 673.398,-308.1 672.994,-301.112"/>
</a>
</g>
</g>
<!-- DI&#45;&gt;DM -->
<g id="edge23" class="edge"><title>DI&#45;&gt;DM</title>
<g id="a_edge23"><a xlink:href="/static/webserver/diseases/hypertension/DI-DM.html">
<path fill="none" stroke="black" d="M663.142,-317.305C668.639,-317.795 674.804,-318.025 680.927,-317.995"/>
<polygon fill="black" stroke="black" points="681.174,-321.489 691.067,-317.697 680.969,-314.492 681.174,-321.489"/>
</a>
</g>
</g>
<!-- CD68 -->
<g id="node41" class="node"><title>CD68</title>
<ellipse fill="#ffc900" stroke="black" cx="111.847" cy="-383.247" rx="32.4942" ry="32.4942"/>
<text text-anchor="middle" x="111.847" y="-379.547" font-family="Times,serif" font-size="14.00">CD68</text>
</g>
<!-- ED1 -->
<g id="node42" class="node"><title>ED1</title>
<ellipse fill="#ffc900" stroke="black" cx="39.8472" cy="-383.247" rx="27.0966" ry="27.0966"/>
<text text-anchor="middle" x="39.8472" y="-379.547" font-family="Times,serif" font-size="14.00">ED1</text>
</g>
<!-- CD68&#45;&gt;ED1 -->
<g id="edge24" class="edge"><title>CD68&#45;&gt;ED1</title>
<g id="a_edge24"><a xlink:href="/static/webserver/diseases/hypertension/CD68-ED1.html">
<path fill="none" stroke="black" d="M79.2178,-383.247C78.5899,-383.247 77.9606,-383.247 77.3308,-383.247"/>
<polygon fill="black" stroke="black" points="77.1957,-379.748 67.1956,-383.247 77.1956,-386.748 77.1957,-379.748"/>
</a>
</g>
</g>
<!-- VIP -->
<g id="node43" class="node"><title>VIP</title>
<ellipse fill="#ffc900" stroke="black" cx="119.847" cy="-477.247" rx="25.1964" ry="25.1964"/>
<text text-anchor="middle" x="119.847" y="-473.547" font-family="Times,serif" font-size="14.00">VIP</text>
</g>
<!-- COPD -->
<g id="node44" class="node"><title>COPD</title>
<ellipse fill="#ffc900" stroke="black" cx="47.8472" cy="-477.247" rx="35.194" ry="35.194"/>
<text text-anchor="middle" x="47.8472" y="-473.547" font-family="Times,serif" font-size="14.00">COPD</text>
</g>
<!-- VIP&#45;&gt;COPD -->
<g id="edge25" class="edge"><title>VIP&#45;&gt;COPD</title>
<g id="a_edge25"><a xlink:href="/static/webserver/diseases/hypertension/VIP-COPD.html">
<path fill="none" stroke="black" d="M94.2599,-477.247C93.9189,-477.247 93.5765,-477.247 93.2329,-477.247"/>
<polygon fill="black" stroke="black" points="93.048,-473.748 83.048,-477.247 93.0479,-480.748 93.048,-473.748"/>
</a>
</g>
</g>
<!-- CP -->
<g id="node46" class="node"><title>CP</title>
<ellipse fill="#ffc900" stroke="black" cx="379.847" cy="-295.247" rx="22.1965" ry="22.1965"/>
<text text-anchor="middle" x="379.847" y="-291.547" font-family="Times,serif" font-size="14.00">CP</text>
</g>
<!-- CP&#45;&gt;HR -->
<g id="edge27" class="edge"><title>CP&#45;&gt;HR</title>
<g id="a_edge27"><a xlink:href="/static/webserver/diseases/hypertension/CP-HR.html">
<path fill="none" stroke="black" d="M379.847,-317.634C379.847,-322.665 379.847,-328.112 379.847,-333.492"/>
<polygon fill="black" stroke="black" points="376.347,-333.628 379.847,-343.628 383.347,-333.628 376.347,-333.628"/>
</a>
</g>
</g>
<!-- RAMP3 -->
<g id="node47" class="node"><title>RAMP3</title>
<ellipse fill="#ffc900" stroke="black" cx="554.847" cy="-483.247" rx="40.8928" ry="40.8928"/>
<text text-anchor="middle" x="554.847" y="-479.547" font-family="Times,serif" font-size="14.00">RAMP3</text>
</g>
<!-- RAMP2 -->
<g id="node48" class="node"><title>RAMP2</title>
<ellipse fill="#ffc900" stroke="black" cx="482.847" cy="-483.247" rx="40.8928" ry="40.8928"/>
<text text-anchor="middle" x="482.847" y="-479.547" font-family="Times,serif" font-size="14.00">RAMP2</text>
</g>
<!-- RAMP3&#45;&gt;RAMP2 -->
<g id="edge28" class="edge"><title>RAMP3&#45;&gt;RAMP2</title>
<g id="a_edge28"><a xlink:href="/static/webserver/diseases/hypertension/RAMP3-RAMP2.html">
<path fill="none" stroke="black" d="M513.8,-483.247C513.736,-483.247 513.673,-483.247 513.61,-483.247"/>
<polygon fill="black" stroke="black" points="523.423,-479.753 513.421,-483.247 523.419,-486.753 523.423,-479.753"/>
</a>
</g>
</g>
<!-- CLI -->
<g id="node49" class="node"><title>CLI</title>
<ellipse fill="#ffc700" stroke="black" cx="103.847" cy="-58.2474" rx="25.1964" ry="25.1964"/>
<text text-anchor="middle" x="103.847" y="-54.5474" font-family="Times,serif" font-size="14.00">CLI</text>
</g>
<!-- MVD -->
<g id="node50" class="node"><title>MVD</title>
<ellipse fill="#ffc700" stroke="black" cx="31.8472" cy="-58.2474" rx="31.6951" ry="31.6951"/>
<text text-anchor="middle" x="31.8472" y="-54.5474" font-family="Times,serif" font-size="14.00">MVD</text>
</g>
<!-- CLI&#45;&gt;MVD -->
<g id="edge29" class="edge"><title>CLI&#45;&gt;MVD</title>
<g id="a_edge29"><a xlink:href="/static/webserver/diseases/hypertension/CLI-MVD.html">
<path fill="none" stroke="black" d="M79.0689,-51.7977C77.1468,-51.6917 75.1774,-51.6137 73.1857,-51.5638"/>
<polygon fill="black" stroke="black" points="73.1628,-48.0639 63.1575,-51.5486 73.1521,-55.0639 73.1628,-48.0639"/>
</a>
</g>
</g>
<!-- MVD&#45;&gt;CLI -->
<g id="edge30" class="edge"><title>MVD&#45;&gt;CLI</title>
<g id="a_edge30"><a xlink:href="/static/webserver/diseases/hypertension/MVD-CLI.html">
<path fill="none" stroke="black" d="M63.218,-64.9476C65.1246,-64.9888 67.0488,-65.0045 68.9688,-64.9945"/>
<polygon fill="black" stroke="black" points="69.1794,-68.4899 79.072,-64.6969 68.9733,-61.4929 69.1794,-68.4899"/>
</a>
</g>
</g>
<!-- TIMP1 -->
<g id="node51" class="node"><title>TIMP1</title>
<ellipse fill="#ffc900" stroke="black" cx="459.847" cy="-128.247" rx="37.0935" ry="37.0935"/>
<text text-anchor="middle" x="459.847" y="-124.547" font-family="Times,serif" font-size="14.00">TIMP1</text>
</g>
<!-- TIMP2 -->
<g id="node52" class="node"><title>TIMP2</title>
<ellipse fill="#ffc900" stroke="black" cx="387.847" cy="-128.247" rx="37.0935" ry="37.0935"/>
<text text-anchor="middle" x="387.847" y="-124.547" font-family="Times,serif" font-size="14.00">TIMP2</text>
</g>
<!-- TIMP1&#45;&gt;TIMP2 -->
<g id="edge31" class="edge"><title>TIMP1&#45;&gt;TIMP2</title>
<g id="a_edge31"><a xlink:href="/static/webserver/diseases/hypertension/TIMP1-TIMP2.html">
<path fill="none" stroke="black" d="M422.582,-128.247C422.513,-128.247 422.445,-128.247 422.376,-128.247"/>
<polygon fill="black" stroke="black" points="432.172,-124.752 422.17,-128.247 432.168,-131.752 432.172,-124.752"/>
</a>
</g>
</g>
<!-- VDR -->
<g id="node53" class="node"><title>VDR</title>
<ellipse fill="#ffc700" stroke="black" cx="198.847" cy="-355.247" rx="29.795" ry="29.795"/>
<text text-anchor="middle" x="198.847" y="-351.547" font-family="Times,serif" font-size="14.00">VDR</text>
</g>
<!-- VDR&#45;&gt;GC -->
<g id="edge32" class="edge"><title>VDR&#45;&gt;GC</title>
<g id="a_edge32"><a xlink:href="/static/webserver/diseases/hypertension/VDR-GC.html">
<path fill="none" stroke="black" d="M198.847,-385.365C198.847,-388.062 198.847,-390.805 198.847,-393.53"/>
<polygon fill="black" stroke="black" points="195.347,-393.821 198.847,-403.821 202.347,-393.821 195.347,-393.821"/>
</a>
</g>
</g>
</g>
</svg>
