<?xml version="1.0" encoding="UTF-8" standalone="no"?>
<!DOCTYPE svg PUBLIC "-//W3C//DTD SVG 1.1//EN"
 "http://www.w3.org/Graphics/SVG/1.1/DTD/svg11.dtd">
<!-- Generated by graphviz version 2.34.0 (20130907.0228)
 -->
<!-- Title: G Pages: 1 -->
<svg width="830pt" height="760pt"
 viewBox="0.00 0.00 830.34 759.59" xmlns="http://www.w3.org/2000/svg" xmlns:xlink="http://www.w3.org/1999/xlink">
<g id="graph0" class="graph" transform="scale(1 1) rotate(0) translate(4 755.594)">
<title>G</title>
<polygon fill="white" stroke="white" points="-4,4 -4,-755.594 826.344,-755.594 826.344,4 -4,4"/>
<!-- ERG -->
<g id="node1" class="node"><title>ERG</title>
<ellipse fill="#ffc900" stroke="black" cx="271.648" cy="-200.247" rx="29.4969" ry="29.4969"/>
<text text-anchor="middle" x="271.648" y="-196.547" font-family="Times,serif" font-size="14.00">ERG</text>
</g>
<!-- TMPRSS2 -->
<g id="node2" class="node"><title>TMPRSS2</title>
<ellipse fill="#ffc900" stroke="black" cx="199.648" cy="-200.247" rx="50.0912" ry="50.0912"/>
<text text-anchor="middle" x="199.648" y="-196.547" font-family="Times,serif" font-size="14.00">TMPRSS2</text>
</g>
<!-- ERG&#45;&gt;TMPRSS2 -->
<g id="edge1" class="edge"><title>ERG&#45;&gt;TMPRSS2</title>
<g id="a_edge1"><a xlink:href="/static/webserver/diseases/obesity/ERG-TMPRSS2.html">
<path fill="none" stroke="black" d="M242.362,-200.247C242.285,-200.247 242.207,-200.247 242.129,-200.247"/>
<polygon fill="black" stroke="black" points="251.896,-196.752 241.895,-200.247 251.893,-203.752 251.896,-196.752"/>
</a>
</g>
</g>
<!-- BMP4 -->
<g id="node3" class="node"><title>BMP4</title>
<ellipse fill="#ffc000" stroke="black" cx="543.648" cy="-540.247" rx="34.394" ry="34.394"/>
<text text-anchor="middle" x="543.648" y="-536.547" font-family="Times,serif" font-size="14.00">BMP4</text>
</g>
<!-- BMP7 -->
<g id="node4" class="node"><title>BMP7</title>
<ellipse fill="#ffc200" stroke="black" cx="543.648" cy="-612.247" rx="34.394" ry="34.394"/>
<text text-anchor="middle" x="543.648" y="-608.547" font-family="Times,serif" font-size="14.00">BMP7</text>
</g>
<!-- BMP4&#45;&gt;BMP7 -->
<g id="edge2" class="edge"><title>BMP4&#45;&gt;BMP7</title>
<g id="a_edge2"><a xlink:href="/static/webserver/diseases/obesity/BMP4-BMP7.html">
<path fill="none" stroke="black" d="M543.648,-574.982C543.648,-575.09 543.648,-575.198 543.648,-575.306"/>
<polygon fill="black" stroke="black" points="540.148,-567.572 543.648,-577.572 547.148,-567.572 540.148,-567.572"/>
</a>
</g>
</g>
<!-- UCP1 -->
<g id="node5" class="node"><title>UCP1</title>
<ellipse fill="#ffc900" stroke="black" cx="543.648" cy="-468.247" rx="33.2948" ry="33.2948"/>
<text text-anchor="middle" x="543.648" y="-464.547" font-family="Times,serif" font-size="14.00">UCP1</text>
</g>
<!-- UCP1&#45;&gt;BMP4 -->
<g id="edge3" class="edge"><title>UCP1&#45;&gt;BMP4</title>
<g id="a_edge3"><a xlink:href="/static/webserver/diseases/obesity/UCP1-BMP4.html">
<path fill="none" stroke="black" d="M543.648,-501.718C543.648,-501.883 543.648,-502.049 543.648,-502.214"/>
<polygon fill="black" stroke="black" points="540.148,-495.691 543.648,-505.691 547.148,-495.691 540.148,-495.691"/>
</a>
</g>
</g>
<!-- DRD2 -->
<g id="node6" class="node"><title>DRD2</title>
<ellipse fill="#ffc000" stroke="black" cx="438.648" cy="-615.247" rx="34.394" ry="34.394"/>
<text text-anchor="middle" x="438.648" y="-611.547" font-family="Times,serif" font-size="14.00">DRD2</text>
</g>
<!-- DRD4 -->
<g id="node7" class="node"><title>DRD4</title>
<ellipse fill="#ffc200" stroke="black" cx="438.648" cy="-687.247" rx="34.394" ry="34.394"/>
<text text-anchor="middle" x="438.648" y="-683.547" font-family="Times,serif" font-size="14.00">DRD4</text>
</g>
<!-- DRD2&#45;&gt;DRD4 -->
<g id="edge4" class="edge"><title>DRD2&#45;&gt;DRD4</title>
<g id="a_edge4"><a xlink:href="/static/webserver/diseases/obesity/DRD2-DRD4.html">
<path fill="none" stroke="black" d="M438.648,-649.982C438.648,-650.09 438.648,-650.198 438.648,-650.306"/>
<polygon fill="black" stroke="black" points="435.148,-642.572 438.648,-652.572 442.148,-642.572 435.148,-642.572"/>
</a>
</g>
</g>
<!-- T -->
<g id="node8" class="node"><title>T</title>
<ellipse fill="#ffc900" stroke="black" cx="438.648" cy="-543.247" rx="18" ry="18"/>
<text text-anchor="middle" x="438.648" y="-539.547" font-family="Times,serif" font-size="14.00">T</text>
</g>
<!-- DRD2&#45;&gt;T -->
<g id="edge5" class="edge"><title>DRD2&#45;&gt;T</title>
<g id="a_edge5"><a xlink:href="/static/webserver/diseases/obesity/DRD2-T.html">
<path fill="none" stroke="black" d="M438.648,-580.513C438.648,-577.515 438.648,-574.505 438.648,-571.566"/>
<polygon fill="black" stroke="black" points="442.148,-571.387 438.648,-561.387 435.148,-571.387 442.148,-571.387"/>
</a>
</g>
</g>
<!-- IRS1 -->
<g id="node9" class="node"><title>IRS1</title>
<ellipse fill="#ffc700" stroke="black" cx="610.648" cy="-704.247" rx="29.4969" ry="29.4969"/>
<text text-anchor="middle" x="610.648" y="-700.547" font-family="Times,serif" font-size="14.00">IRS1</text>
</g>
<!-- IRS2 -->
<g id="node10" class="node"><title>IRS2</title>
<ellipse fill="#ffc700" stroke="black" cx="538.648" cy="-704.247" rx="29.4969" ry="29.4969"/>
<text text-anchor="middle" x="538.648" y="-700.547" font-family="Times,serif" font-size="14.00">IRS2</text>
</g>
<!-- IRS1&#45;&gt;IRS2 -->
<g id="edge6" class="edge"><title>IRS1&#45;&gt;IRS2</title>
<g id="a_edge6"><a xlink:href="/static/webserver/diseases/obesity/IRS1-IRS2.html">
<path fill="none" stroke="black" d="M581.362,-704.247C580.409,-704.247 579.448,-704.247 578.484,-704.247"/>
<polygon fill="black" stroke="black" points="578.141,-700.748 568.141,-704.247 578.141,-707.748 578.141,-700.748"/>
</a>
</g>
</g>
<!-- FGF21 -->
<g id="node11" class="node"><title>FGF21</title>
<ellipse fill="#ffc700" stroke="black" cx="547.648" cy="-290.247" rx="36.2938" ry="36.2938"/>
<text text-anchor="middle" x="547.648" y="-286.547" font-family="Times,serif" font-size="14.00">FGF21</text>
</g>
<!-- FGF19 -->
<g id="node12" class="node"><title>FGF19</title>
<ellipse fill="#ffc900" stroke="black" cx="547.648" cy="-362.247" rx="36.2938" ry="36.2938"/>
<text text-anchor="middle" x="547.648" y="-358.547" font-family="Times,serif" font-size="14.00">FGF19</text>
</g>
<!-- FGF21&#45;&gt;FGF19 -->
<g id="edge7" class="edge"><title>FGF21&#45;&gt;FGF19</title>
<g id="a_edge7"><a xlink:href="/static/webserver/diseases/obesity/FGF21-FGF19.html">
<path fill="none" stroke="black" d="M547.648,-326.669C547.648,-326.739 547.648,-326.809 547.648,-326.879"/>
<polygon fill="black" stroke="black" points="544.152,-317.086 547.648,-327.088 551.152,-317.089 544.152,-317.086"/>
</a>
</g>
</g>
<!-- FGFR4 -->
<g id="node13" class="node"><title>FGFR4</title>
<ellipse fill="#ffc900" stroke="black" cx="547.648" cy="-218.247" rx="38.1938" ry="38.1938"/>
<text text-anchor="middle" x="547.648" y="-214.547" font-family="Times,serif" font-size="14.00">FGFR4</text>
</g>
<!-- FGF21&#45;&gt;FGFR4 -->
<g id="edge8" class="edge"><title>FGF21&#45;&gt;FGFR4</title>
<g id="a_edge8"><a xlink:href="/static/webserver/diseases/obesity/FGF21-FGFR4.html">
<path fill="none" stroke="black" d="M547.648,-253.826C547.648,-253.756 547.648,-253.686 547.648,-253.616"/>
<polygon fill="black" stroke="black" points="551.152,-263.405 547.648,-253.407 544.152,-263.409 551.152,-263.405"/>
</a>
</g>
</g>
<!-- HRH1 -->
<g id="node14" class="node"><title>HRH1</title>
<ellipse fill="#ffc900" stroke="black" cx="446.648" cy="-466.955" rx="34.394" ry="34.394"/>
<text text-anchor="middle" x="446.648" y="-463.255" font-family="Times,serif" font-size="14.00">HRH1</text>
</g>
<!-- BDNF -->
<g id="node15" class="node"><title>BDNF</title>
<ellipse fill="#ffc400" stroke="black" cx="410.648" cy="-404.601" rx="35.194" ry="35.194"/>
<text text-anchor="middle" x="410.648" y="-400.901" font-family="Times,serif" font-size="14.00">BDNF</text>
</g>
<!-- HRH1&#45;&gt;BDNF -->
<g id="edge9" class="edge"><title>HRH1&#45;&gt;BDNF</title>
<g id="a_edge9"><a xlink:href="/static/webserver/diseases/obesity/HRH1-BDNF.html">
<path fill="none" stroke="black" d="M429.28,-436.874C429.19,-436.718 429.101,-436.563 429.011,-436.407"/>
<polygon fill="black" stroke="black" points="436.233,-441.915 428.201,-435.005 430.17,-445.415 436.233,-441.915"/>
</a>
</g>
</g>
<!-- MC4R -->
<g id="node18" class="node"><title>MC4R</title>
<ellipse fill="#ffc400" stroke="black" cx="374.648" cy="-342.247" rx="35.9954" ry="35.9954"/>
<text text-anchor="middle" x="374.648" y="-338.547" font-family="Times,serif" font-size="14.00">MC4R</text>
</g>
<!-- BDNF&#45;&gt;MC4R -->
<g id="edge11" class="edge"><title>BDNF&#45;&gt;MC4R</title>
<g id="a_edge11"><a xlink:href="/static/webserver/diseases/obesity/BDNF-MC4R.html">
<path fill="none" stroke="black" d="M399.123,-371.147C399.034,-370.991 398.945,-370.835 398.855,-370.679"/>
<polygon fill="black" stroke="black" points="406.079,-376.184 398.045,-369.277 400.018,-379.686 406.079,-376.184"/>
</a>
</g>
</g>
<!-- LBP -->
<g id="node16" class="node"><title>LBP</title>
<ellipse fill="#ffc900" stroke="black" cx="98.6476" cy="-717.247" rx="27.0966" ry="27.0966"/>
<text text-anchor="middle" x="98.6476" y="-713.547" font-family="Times,serif" font-size="14.00">LBP</text>
</g>
<!-- LPS -->
<g id="node17" class="node"><title>LPS</title>
<ellipse fill="#ffc900" stroke="black" cx="26.6476" cy="-717.247" rx="26.7961" ry="26.7961"/>
<text text-anchor="middle" x="26.6476" y="-713.547" font-family="Times,serif" font-size="14.00">LPS</text>
</g>
<!-- LBP&#45;&gt;LPS -->
<g id="edge10" class="edge"><title>LBP&#45;&gt;LPS</title>
<g id="a_edge10"><a xlink:href="/static/webserver/diseases/obesity/LBP-LPS.html">
<path fill="none" stroke="black" d="M71.0165,-717.247C68.6073,-717.247 66.1452,-717.247 63.6767,-717.247"/>
<polygon fill="black" stroke="black" points="63.6114,-713.748 53.6114,-717.247 63.6114,-720.748 63.6114,-713.748"/>
</a>
</g>
</g>
<!-- MC4R&#45;&gt;BDNF -->
<g id="edge12" class="edge"><title>MC4R&#45;&gt;BDNF</title>
<g id="a_edge12"><a xlink:href="/static/webserver/diseases/obesity/MC4R-BDNF.html">
<path fill="none" stroke="black" d="M386.382,-376.068C386.47,-376.223 386.559,-376.378 386.648,-376.532"/>
<polygon fill="black" stroke="black" points="379.407,-371.03 387.455,-377.922 385.461,-367.516 379.407,-371.03"/>
</a>
</g>
</g>
<!-- IMPACT -->
<g id="node19" class="node"><title>IMPACT</title>
<ellipse fill="#ffc900" stroke="black" cx="713.648" cy="-255.247" rx="44.6926" ry="44.6926"/>
<text text-anchor="middle" x="713.648" y="-251.547" font-family="Times,serif" font-size="14.00">IMPACT</text>
</g>
<!-- SSB -->
<g id="node20" class="node"><title>SSB</title>
<ellipse fill="#ffc900" stroke="black" cx="641.648" cy="-255.247" rx="26.7961" ry="26.7961"/>
<text text-anchor="middle" x="641.648" y="-251.547" font-family="Times,serif" font-size="14.00">SSB</text>
</g>
<!-- IMPACT&#45;&gt;SSB -->
<g id="edge13" class="edge"><title>IMPACT&#45;&gt;SSB</title>
<g id="a_edge13"><a xlink:href="/static/webserver/diseases/obesity/IMPACT-SSB.html">
<path fill="none" stroke="black" d="M668.458,-255.247C668.401,-255.247 668.345,-255.247 668.288,-255.247"/>
<polygon fill="black" stroke="black" points="678.121,-251.753 668.119,-255.247 678.117,-258.753 678.121,-251.753"/>
</a>
</g>
</g>
<!-- PPARD -->
<g id="node21" class="node"><title>PPARD</title>
<ellipse fill="#ffc900" stroke="black" cx="296.648" cy="-490.247" rx="40.0939" ry="40.0939"/>
<text text-anchor="middle" x="296.648" y="-486.547" font-family="Times,serif" font-size="14.00">PPARD</text>
</g>
<!-- PPARGC1A -->
<g id="node22" class="node"><title>PPARGC1A</title>
<ellipse fill="#ffc700" stroke="black" cx="296.648" cy="-562.247" rx="57.3905" ry="57.3905"/>
<text text-anchor="middle" x="296.648" y="-558.547" font-family="Times,serif" font-size="14.00">PPARGC1A</text>
</g>
<!-- PPARD&#45;&gt;PPARGC1A -->
<g id="edge14" class="edge"><title>PPARD&#45;&gt;PPARGC1A</title>
<g id="a_edge14"><a xlink:href="/static/webserver/diseases/obesity/PPARD-PPARGC1A.html">
<path fill="none" stroke="black" d="M296.648,-530.877C296.648,-530.94 296.648,-531.004 296.648,-531.068"/>
<polygon fill="black" stroke="black" points="293.153,-521.257 296.648,-531.259 300.153,-521.261 293.153,-521.257"/>
</a>
</g>
</g>
<!-- PPARGC1B -->
<g id="node23" class="node"><title>PPARGC1B</title>
<ellipse fill="#ffc900" stroke="black" cx="296.648" cy="-634.247" rx="56.59" ry="56.59"/>
<text text-anchor="middle" x="296.648" y="-630.547" font-family="Times,serif" font-size="14.00">PPARGC1B</text>
</g>
<!-- PPARGC1A&#45;&gt;PPARGC1B -->
<g id="edge15" class="edge"><title>PPARGC1A&#45;&gt;PPARGC1B</title>
<g id="a_edge15"><a xlink:href="/static/webserver/diseases/obesity/PPARGC1A-PPARGC1B.html">
<path fill="none" stroke="black" d="M296.648,-619.677C296.648,-619.744 296.648,-619.811 296.648,-619.877"/>
<polygon fill="black" stroke="black" points="293.153,-610.074 296.648,-620.076 300.153,-610.078 293.153,-610.074"/>
</a>
</g>
</g>
<!-- PTPN2 -->
<g id="node24" class="node"><title>PTPN2</title>
<ellipse fill="#ffc700" stroke="black" cx="184.648" cy="-443.247" rx="37.8943" ry="37.8943"/>
<text text-anchor="middle" x="184.648" y="-439.547" font-family="Times,serif" font-size="14.00">PTPN2</text>
</g>
<!-- STAT1 -->
<g id="node25" class="node"><title>STAT1</title>
<ellipse fill="#ffc700" stroke="black" cx="112.648" cy="-443.247" rx="38.1938" ry="38.1938"/>
<text text-anchor="middle" x="112.648" y="-439.547" font-family="Times,serif" font-size="14.00">STAT1</text>
</g>
<!-- PTPN2&#45;&gt;STAT1 -->
<g id="edge16" class="edge"><title>PTPN2&#45;&gt;STAT1</title>
<g id="a_edge16"><a xlink:href="/static/webserver/diseases/obesity/PTPN2-STAT1.html">
<path fill="none" stroke="black" d="M147.382,-436.501C147.314,-436.502 147.245,-436.502 147.176,-436.502"/>
<polygon fill="black" stroke="black" points="156.943,-432.926 146.971,-436.504 156.998,-439.926 156.943,-432.926"/>
</a>
</g>
</g>
<!-- STAT1&#45;&gt;PTPN2 -->
<g id="edge17" class="edge"><title>STAT1&#45;&gt;PTPN2</title>
<g id="a_edge17"><a xlink:href="/static/webserver/diseases/obesity/STAT1-PTPN2.html">
<path fill="none" stroke="black" d="M150.756,-449.987C150.823,-449.986 150.891,-449.986 150.958,-449.985"/>
<polygon fill="black" stroke="black" points="141.202,-453.599 151.161,-449.983 141.12,-446.6 141.202,-453.599"/>
</a>
</g>
</g>
<!-- CS -->
<g id="node26" class="node"><title>CS</title>
<ellipse fill="#ffc400" stroke="black" cx="738.648" cy="-127.247" rx="22.1965" ry="22.1965"/>
<text text-anchor="middle" x="738.648" y="-123.547" font-family="Times,serif" font-size="14.00">CS</text>
</g>
<!-- PRKAR1A -->
<g id="node27" class="node"><title>PRKAR1A</title>
<ellipse fill="#ffc400" stroke="black" cx="666.648" cy="-127.247" rx="51.9908" ry="51.9908"/>
<text text-anchor="middle" x="666.648" y="-123.547" font-family="Times,serif" font-size="14.00">PRKAR1A</text>
</g>
<!-- CS&#45;&gt;PRKAR1A -->
<g id="edge18" class="edge"><title>CS&#45;&gt;PRKAR1A</title>
<g id="a_edge18"><a xlink:href="/static/webserver/diseases/obesity/CS-PRKAR1A.html">
<path fill="none" stroke="black" d="M716.261,-127.247C716.178,-127.247 716.096,-127.247 716.013,-127.247"/>
<polygon fill="black" stroke="black" points="725.766,-123.751 715.764,-127.247 725.763,-130.751 725.766,-123.751"/>
</a>
</g>
</g>
<!-- DBP -->
<g id="node28" class="node"><title>DBP</title>
<ellipse fill="#ffc900" stroke="black" cx="178.648" cy="-707.247" rx="28.6953" ry="28.6953"/>
<text text-anchor="middle" x="178.648" y="-703.547" font-family="Times,serif" font-size="14.00">DBP</text>
</g>
<!-- INS -->
<g id="node29" class="node"><title>INS</title>
<ellipse fill="#ffc700" stroke="black" cx="178.648" cy="-635.247" rx="25.1964" ry="25.1964"/>
<text text-anchor="middle" x="178.648" y="-631.547" font-family="Times,serif" font-size="14.00">INS</text>
</g>
<!-- DBP&#45;&gt;INS -->
<g id="edge19" class="edge"><title>DBP&#45;&gt;INS</title>
<g id="a_edge19"><a xlink:href="/static/webserver/diseases/obesity/DBP-INS.html">
<path fill="none" stroke="black" d="M178.648,-678.377C178.648,-675.934 178.648,-673.446 178.648,-670.959"/>
<polygon fill="black" stroke="black" points="182.148,-670.869 178.648,-660.87 175.148,-670.87 182.148,-670.869"/>
</a>
</g>
</g>
<!-- TG -->
<g id="node30" class="node"><title>TG</title>
<ellipse fill="#ffc900" stroke="black" cx="178.648" cy="-563.247" rx="22.9987" ry="22.9987"/>
<text text-anchor="middle" x="178.648" y="-559.547" font-family="Times,serif" font-size="14.00">TG</text>
</g>
<!-- TG&#45;&gt;INS -->
<g id="edge20" class="edge"><title>TG&#45;&gt;INS</title>
<g id="a_edge20"><a xlink:href="/static/webserver/diseases/obesity/TG-INS.html">
<path fill="none" stroke="black" d="M178.648,-586.029C178.648,-590.411 178.648,-595.097 178.648,-599.771"/>
<polygon fill="black" stroke="black" points="175.148,-599.863 178.648,-609.863 182.148,-599.863 175.148,-599.863"/>
</a>
</g>
</g>
<!-- DDT -->
<g id="node31" class="node"><title>DDT</title>
<ellipse fill="#ffc900" stroke="black" cx="781.648" cy="-29.2474" rx="29.4969" ry="29.4969"/>
<text text-anchor="middle" x="781.648" y="-25.5474" font-family="Times,serif" font-size="14.00">DDT</text>
</g>
<!-- F2 -->
<g id="node32" class="node"><title>F2</title>
<ellipse fill="#ffc900" stroke="black" cx="709.648" cy="-29.2474" rx="20.2975" ry="20.2975"/>
<text text-anchor="middle" x="709.648" y="-25.5474" font-family="Times,serif" font-size="14.00">F2</text>
</g>
<!-- DDT&#45;&gt;F2 -->
<g id="edge21" class="edge"><title>DDT&#45;&gt;F2</title>
<g id="a_edge21"><a xlink:href="/static/webserver/diseases/obesity/DDT-F2.html">
<path fill="none" stroke="black" d="M752.362,-29.2474C748.391,-29.2474 744.307,-29.2474 740.313,-29.2474"/>
<polygon fill="black" stroke="black" points="740.087,-25.7475 730.087,-29.2474 740.087,-32.7475 740.087,-25.7475"/>
</a>
</g>
</g>
<!-- CBP -->
<g id="node33" class="node"><title>CBP</title>
<ellipse fill="#ffc900" stroke="black" cx="730.648" cy="-599.247" rx="27.8951" ry="27.8951"/>
<text text-anchor="middle" x="730.648" y="-595.547" font-family="Times,serif" font-size="14.00">CBP</text>
</g>
<!-- CYP8B1 -->
<g id="node34" class="node"><title>CYP8B1</title>
<ellipse fill="#ffc900" stroke="black" cx="658.648" cy="-599.247" rx="43.5923" ry="43.5923"/>
<text text-anchor="middle" x="658.648" y="-595.547" font-family="Times,serif" font-size="14.00">CYP8B1</text>
</g>
<!-- CBP&#45;&gt;CYP8B1 -->
<g id="edge22" class="edge"><title>CBP&#45;&gt;CYP8B1</title>
<g id="a_edge22"><a xlink:href="/static/webserver/diseases/obesity/CBP-CYP8B1.html">
<path fill="none" stroke="black" d="M702.604,-599.247C702.525,-599.247 702.446,-599.247 702.367,-599.247"/>
<polygon fill="black" stroke="black" points="712.131,-595.752 702.13,-599.247 712.128,-602.752 712.131,-595.752"/>
</a>
</g>
</g>
<!-- NPY -->
<g id="node35" class="node"><title>NPY</title>
<ellipse fill="#ffc400" stroke="black" cx="338.648" cy="-279.894" rx="29.4969" ry="29.4969"/>
<text text-anchor="middle" x="338.648" y="-276.194" font-family="Times,serif" font-size="14.00">NPY</text>
</g>
<!-- NPY&#45;&gt;MC4R -->
<g id="edge24" class="edge"><title>NPY&#45;&gt;MC4R</title>
<g id="a_edge24"><a xlink:href="/static/webserver/diseases/obesity/NPY-MC4R.html">
<path fill="none" stroke="black" d="M353.29,-305.255C353.358,-305.373 353.427,-305.491 353.495,-305.61"/>
<polygon fill="black" stroke="black" points="348.564,-304.069 356.595,-310.979 354.626,-300.569 348.564,-304.069"/>
</a>
</g>
</g>
<!-- POMC -->
<g id="node36" class="node"><title>POMC</title>
<ellipse fill="#ffc900" stroke="black" cx="230.648" cy="-342.247" rx="36.2938" ry="36.2938"/>
<text text-anchor="middle" x="230.648" y="-338.547" font-family="Times,serif" font-size="14.00">POMC</text>
</g>
<!-- NPY&#45;&gt;POMC -->
<g id="edge23" class="edge"><title>NPY&#45;&gt;POMC</title>
<g id="a_edge23"><a xlink:href="/static/webserver/diseases/obesity/NPY-POMC.html">
<path fill="none" stroke="black" d="M313.053,-294.671C300.568,-301.879 285.251,-310.722 271.224,-318.821"/>
<polygon fill="black" stroke="black" points="269.145,-315.979 262.235,-324.01 272.645,-322.041 269.145,-315.979"/>
</a>
</g>
</g>
<!-- AMPH -->
<g id="node37" class="node"><title>AMPH</title>
<ellipse fill="#ffc900" stroke="black" cx="446.648" cy="-217.54" rx="37.0935" ry="37.0935"/>
<text text-anchor="middle" x="446.648" y="-213.84" font-family="Times,serif" font-size="14.00">AMPH</text>
</g>
<!-- NPY&#45;&gt;AMPH -->
<g id="edge25" class="edge"><title>NPY&#45;&gt;AMPH</title>
<g id="a_edge25"><a xlink:href="/static/webserver/diseases/obesity/NPY-AMPH.html">
<path fill="none" stroke="black" d="M364.242,-265.117C376.523,-258.026 391.543,-249.354 405.381,-241.365"/>
<polygon fill="black" stroke="black" points="407.352,-244.269 414.262,-236.237 403.852,-238.206 407.352,-244.269"/>
</a>
</g>
</g>
<!-- NTS -->
<g id="node38" class="node"><title>NTS</title>
<ellipse fill="#ffc900" stroke="black" cx="154.648" cy="-98.2474" rx="27.8951" ry="27.8951"/>
<text text-anchor="middle" x="154.648" y="-94.5474" font-family="Times,serif" font-size="14.00">NTS</text>
</g>
<!-- FABP6 -->
<g id="node39" class="node"><title>FABP6</title>
<ellipse fill="#ffc900" stroke="black" cx="82.6476" cy="-98.2474" rx="38.1938" ry="38.1938"/>
<text text-anchor="middle" x="82.6476" y="-94.5474" font-family="Times,serif" font-size="14.00">FABP6</text>
</g>
<!-- NTS&#45;&gt;FABP6 -->
<g id="edge26" class="edge"><title>NTS&#45;&gt;FABP6</title>
<g id="a_edge26"><a xlink:href="/static/webserver/diseases/obesity/NTS-FABP6.html">
<path fill="none" stroke="black" d="M126.604,-98.2474C126.496,-98.2474 126.387,-98.2474 126.278,-98.2474"/>
<polygon fill="black" stroke="black" points="131.332,-94.7476 121.332,-98.2474 131.332,-101.748 131.332,-94.7476"/>
</a>
</g>
</g>
<!-- MCHR1 -->
<g id="node40" class="node"><title>MCHR1</title>
<ellipse fill="#ffc900" stroke="black" cx="729.648" cy="-373.247" rx="42.4939" ry="42.4939"/>
<text text-anchor="middle" x="729.648" y="-369.547" font-family="Times,serif" font-size="14.00">MCHR1</text>
</g>
<!-- SLC5A1 -->
<g id="node41" class="node"><title>SLC5A1</title>
<ellipse fill="#ffc900" stroke="black" cx="657.648" cy="-373.247" rx="42.7926" ry="42.7926"/>
<text text-anchor="middle" x="657.648" y="-369.547" font-family="Times,serif" font-size="14.00">SLC5A1</text>
</g>
<!-- MCHR1&#45;&gt;SLC5A1 -->
<g id="edge27" class="edge"><title>MCHR1&#45;&gt;SLC5A1</title>
<g id="a_edge27"><a xlink:href="/static/webserver/diseases/obesity/MCHR1-SLC5A1.html">
<path fill="none" stroke="black" d="M687.348,-373.247C687.287,-373.247 687.226,-373.247 687.165,-373.247"/>
<polygon fill="black" stroke="black" points="696.983,-369.753 686.981,-373.247 696.98,-376.753 696.983,-369.753"/>
</a>
</g>
</g>
<!-- CD80 -->
<g id="node42" class="node"><title>CD80</title>
<ellipse fill="#ffc700" stroke="black" cx="133.648" cy="-347.247" rx="32.4942" ry="32.4942"/>
<text text-anchor="middle" x="133.648" y="-343.547" font-family="Times,serif" font-size="14.00">CD80</text>
</g>
<!-- CD86 -->
<g id="node43" class="node"><title>CD86</title>
<ellipse fill="#ffc700" stroke="black" cx="61.6476" cy="-347.247" rx="32.4942" ry="32.4942"/>
<text text-anchor="middle" x="61.6476" y="-343.547" font-family="Times,serif" font-size="14.00">CD86</text>
</g>
<!-- CD80&#45;&gt;CD86 -->
<g id="edge28" class="edge"><title>CD80&#45;&gt;CD86</title>
<g id="a_edge28"><a xlink:href="/static/webserver/diseases/obesity/CD80-CD86.html">
<path fill="none" stroke="black" d="M101.018,-347.247C100.879,-347.247 100.739,-347.247 100.599,-347.247"/>
<polygon fill="black" stroke="black" points="104.303,-343.748 94.3033,-347.247 104.303,-350.748 104.303,-343.748"/>
</a>
</g>
</g>
<!-- ACE -->
<g id="node44" class="node"><title>ACE</title>
<ellipse fill="#ffc900" stroke="black" cx="554.648" cy="-29.2474" rx="29.4969" ry="29.4969"/>
<text text-anchor="middle" x="554.648" y="-25.5474" font-family="Times,serif" font-size="14.00">ACE</text>
</g>
<!-- II -->
<g id="node45" class="node"><title>II</title>
<ellipse fill="#ffc900" stroke="black" cx="482.648" cy="-29.2474" rx="18" ry="18"/>
<text text-anchor="middle" x="482.648" y="-25.5474" font-family="Times,serif" font-size="14.00">II</text>
</g>
<!-- ACE&#45;&gt;II -->
<g id="edge29" class="edge"><title>ACE&#45;&gt;II</title>
<g id="a_edge29"><a xlink:href="/static/webserver/diseases/obesity/ACE-II.html">
<path fill="none" stroke="black" d="M525.362,-29.2474C520.72,-29.2474 515.923,-29.2474 511.295,-29.2474"/>
<polygon fill="black" stroke="black" points="510.956,-25.7475 500.956,-29.2474 510.956,-32.7475 510.956,-25.7475"/>
</a>
</g>
</g>
<!-- ABCA1 -->
<g id="node46" class="node"><title>ABCA1</title>
<ellipse fill="#ffc900" stroke="black" cx="456.648" cy="-115.247" rx="40.0939" ry="40.0939"/>
<text text-anchor="middle" x="456.648" y="-111.547" font-family="Times,serif" font-size="14.00">ABCA1</text>
</g>
<!-- ABCC1 -->
<g id="node47" class="node"><title>ABCC1</title>
<ellipse fill="#ffc900" stroke="black" cx="384.648" cy="-115.247" rx="40.0939" ry="40.0939"/>
<text text-anchor="middle" x="384.648" y="-111.547" font-family="Times,serif" font-size="14.00">ABCC1</text>
</g>
<!-- ABCA1&#45;&gt;ABCC1 -->
<g id="edge30" class="edge"><title>ABCA1&#45;&gt;ABCC1</title>
<g id="a_edge30"><a xlink:href="/static/webserver/diseases/obesity/ABCA1-ABCC1.html">
<path fill="none" stroke="black" d="M416.018,-115.247C415.955,-115.247 415.891,-115.247 415.827,-115.247"/>
<polygon fill="black" stroke="black" points="425.638,-111.753 415.636,-115.247 425.634,-118.753 425.638,-111.753"/>
</a>
</g>
</g>
<!-- ABCG5 -->
<g id="node48" class="node"><title>ABCG5</title>
<ellipse fill="#ffc700" stroke="black" cx="726.648" cy="-490.247" rx="40.0939" ry="40.0939"/>
<text text-anchor="middle" x="726.648" y="-486.547" font-family="Times,serif" font-size="14.00">ABCG5</text>
</g>
<!-- ABCG8 -->
<g id="node49" class="node"><title>ABCG8</title>
<ellipse fill="#ffc700" stroke="black" cx="654.648" cy="-490.247" rx="40.0939" ry="40.0939"/>
<text text-anchor="middle" x="654.648" y="-486.547" font-family="Times,serif" font-size="14.00">ABCG8</text>
</g>
<!-- ABCG5&#45;&gt;ABCG8 -->
<g id="edge31" class="edge"><title>ABCG5&#45;&gt;ABCG8</title>
<g id="a_edge31"><a xlink:href="/static/webserver/diseases/obesity/ABCG5-ABCG8.html">
<path fill="none" stroke="black" d="M686.018,-490.247C685.955,-490.247 685.891,-490.247 685.827,-490.247"/>
<polygon fill="black" stroke="black" points="695.638,-486.753 685.636,-490.247 695.634,-493.753 695.638,-486.753"/>
</a>
</g>
</g>
<!-- TXNIP -->
<g id="node50" class="node"><title>TXNIP</title>
<ellipse fill="#ffc900" stroke="black" cx="784.648" cy="-713.247" rx="37.8943" ry="37.8943"/>
<text text-anchor="middle" x="784.648" y="-709.547" font-family="Times,serif" font-size="14.00">TXNIP</text>
</g>
<!-- NLRP3 -->
<g id="node51" class="node"><title>NLRP3</title>
<ellipse fill="#ffc900" stroke="black" cx="712.648" cy="-713.247" rx="38.1938" ry="38.1938"/>
<text text-anchor="middle" x="712.648" y="-709.547" font-family="Times,serif" font-size="14.00">NLRP3</text>
</g>
<!-- TXNIP&#45;&gt;NLRP3 -->
<g id="edge32" class="edge"><title>TXNIP&#45;&gt;NLRP3</title>
<g id="a_edge32"><a xlink:href="/static/webserver/diseases/obesity/TXNIP-NLRP3.html">
<path fill="none" stroke="black" d="M746.539,-713.247C746.472,-713.247 746.404,-713.247 746.337,-713.247"/>
<polygon fill="black" stroke="black" points="756.136,-709.752 746.135,-713.247 756.133,-716.752 756.136,-709.752"/>
</a>
</g>
</g>
</g>
</svg>
